/* XPM */
static char *dog_house[] = {
/* columns rows colors chars-per-pixel */
"64 64 245 2 ",
"   c #1E0902",
".  c #1B1104",
"X  c #230C03",
"o  c #230F09",
"O  c #250C03",
"+  c #251106",
"@  c #2C1207",
"#  c #25110A",
"$  c #2D140A",
"%  c #2E180B",
"&  c #23180C",
"*  c #31160B",
"=  c #33190D",
"-  c #391B0C",
";  c #2B1C12",
":  c #372115",
">  c #4C2C1B",
",  c #462717",
"<  c #512F1B",
"1  c #57331D",
"2  c #472916",
"3  c #74391D",
"4  c #5B3823",
"5  c #653E25",
"6  c #315C1D",
"7  c #34651E",
"8  c #335D22",
"9  c #3A5B26",
"0  c #3C5D2A",
"q  c #375628",
"w  c #3A532B",
"e  c #366323",
"r  c #3A6426",
"t  c #3C6B25",
"y  c #3D642B",
"u  c #3D6A2B",
"i  c #36652B",
"p  c #3E722B",
"a  c #3E6B32",
"s  c #3E6631",
"d  c #3D7333",
"f  c #445C2D",
"g  c #5C5B2B",
"h  c #475D35",
"j  c #545F34",
"k  c #6B452B",
"l  c #6A4427",
"z  c #724729",
"x  c #734B2C",
"c  c #7B4E2D",
"v  c #764826",
"b  c #68582B",
"n  c #7D512D",
"m  c #775A2B",
"M  c #6E4A31",
"N  c #714E35",
"B  c #7A4F33",
"V  c #645D36",
"C  c #7C5233",
"Z  c #7A5637",
"A  c #42652C",
"S  c #436B2D",
"D  c #496C2E",
"F  c #426827",
"G  c #44712D",
"H  c #4A722E",
"J  c #43772B",
"K  c #446533",
"L  c #496534",
"P  c #456C32",
"I  c #4A6C34",
"U  c #4C643A",
"Y  c #466C38",
"T  c #4C6C3A",
"R  c #44643A",
"E  c #536C3C",
"W  c #566836",
"Q  c #457232",
"!  c #4B7234",
"~  c #4B7935",
"^  c #457239",
"/  c #4C733A",
"(  c #4A7938",
")  c #517235",
"_  c #52733C",
"`  c #57783C",
"'  c #5F642F",
"]  c #676836",
"[  c #79673A",
"{  c #69632E",
"}  c #6C401E",
"|  c #526E41",
" . c #536741",
".. c #4C7640",
"X. c #527342",
"o. c #597441",
"O. c #597A45",
"+. c #4E6F40",
"@. c #717648",
"#. c #99311B",
"$. c #B63719",
"%. c #963B26",
"&. c #A63B22",
"*. c #B83C23",
"=. c #C13D23",
"-. c #9A4A2A",
";. c #87542D",
":. c #825633",
">. c #855A35",
",. c #8B5C35",
"<. c #845C3A",
"1. c #8B5D39",
"2. c #8D5632",
"3. c #965D36",
"4. c #924D2D",
"5. c #A6482B",
"6. c #B94728",
"7. c #B9522D",
"8. c #A34B32",
"9. c #AA5936",
"0. c #B05430",
"q. c #8D613B",
"w. c #876339",
"e. c #94643C",
"r. c #99653C",
"t. c #9B693E",
"y. c #94663C",
"u. c #AD693F",
"i. c #C54728",
"p. c #C8502E",
"a. c #C95533",
"s. c #D45231",
"d. c #C6653A",
"f. c #D0653D",
"g. c #896543",
"h. c #936641",
"j. c #956A43",
"k. c #9A6D44",
"l. c #9A6E49",
"z. c #9B6845",
"x. c #9D7146",
"c. c #9E734A",
"v. c #9B784C",
"b. c #927C51",
"n. c #A16E42",
"m. c #A27347",
"M. c #A2754B",
"N. c #A4794E",
"B. c #AC7A4D",
"V. c #AB764C",
"C. c #B27D4D",
"Z. c #B3714A",
"A. c #A57B52",
"S. c #AB7D52",
"D. c #A37750",
"F. c #B27C51",
"G. c #BB6D47",
"H. c #A37D62",
"J. c #845E46",
"K. c #C66A43",
"L. c #CA764A",
"P. c #D27C4F",
"I. c #4F8035",
"U. c #678048",
"Y. c #78824B",
"T. c #7E8251",
"R. c #978556",
"E. c #8F8F57",
"W. c #AC8156",
"Q. c #AD8559",
"!. c #A9875C",
"~. c #B48353",
"^. c #BA8455",
"/. c #B3865A",
"(. c #B28A5E",
"). c #BE8B5B",
"_. c #BD8857",
"`. c #B38E59",
"'. c #9A9164",
"]. c #B48C62",
"[. c #BC8D61",
"{. c #A69665",
"}. c #B99565",
"|. c #AC8A71",
" X c #AF8D72",
".X c #B9A470",
"XX c #C38D5B",
"oX c #CB8E5A",
"OX c #C68755",
"+X c #C4915E",
"@X c #CD935C",
"#X c #D2955E",
"$X c #D4995E",
"%X c #D78755",
"&X c #C49363",
"*X c #CB9562",
"=X c #CC9A64",
"-X c #C99B69",
";X c #D39761",
":X c #D49B64",
">X c #DA9D64",
",X c #D39D69",
"<X c #D99E68",
"1X c #C69569",
"2X c #CBA36A",
"3X c #DBA066",
"4X c #D3A26A",
"5X c #DCA36B",
"6X c #DDA86F",
"7X c #D3A066",
"8X c #C9A572",
"9X c #DEAA71",
"0X c #D5AA76",
"qX c #DDB27B",
"wX c #E2A66B",
"eX c #E2A96E",
"rX c #E1A166",
"tX c #E3AC74",
"yX c #E5AD75",
"uX c #E3B076",
"iX c #E5B37B",
"pX c #EAB57C",
"aX c #EBB87E",
"sX c #E8B479",
"dX c #F3BA7E",
"fX c #B99B82",
"gX c #CAAB91",
"hX c #C8B29A",
"jX c #CEAD8F",
"kX c #EBBB83",
"lX c #ECBE89",
"zX c #E8B782",
"xX c #F3BC83",
"cX c #D4BBA4",
"vX c #EDC18B",
"bX c #F0C18B",
"nX c #DCC7AB",
"mX c #E5CBB3",
"MX c #EBD6BE",
"NX c #E1C6AD",
"BX c #F5DEC8",
"VX c #F6E2CA",
"CX c #F9EAD3",
"ZX c #FBF5DE",
"AX c #FFFEE7",
/* pixels */
"G D _ S P ! F y S I I.G ) t ! S 7 y F P Q r ! P K P Q G S G D u ( / E u P K Q ^ O./ A X.O.^ D A P S / ! I T S P y u u F S S Q ! ",
"9 t S D S Q P S y Q t F ` S I X.S y A ! ( t / L ! ( ) G D ! d ' -.W / P Q ! u p O.O.T | / _ / P ^ ! Q L U _ ) D 9 D ! G S D T H ",
"G y H F r 6 r G S F F S G G S ..T K S G G S I I / T ! Q D S { 6.i.6.] Q G P u y P P L A 9 Q / ! T L u y I P ! S y ( G G P ! I G ",
"/ Q ! G r F t y S T F J S u e r u S S G u D P A S / _ D L d ;.*.6.*.l d ! A u ( K K L L t ( / P P _ D I T P ~ S ! ^ t Q ` E L A ",
"/ ( W _ A ) P A ! / Q r P ) r r u a r y I D u G I ! S R | [ 0.6.5.*.5.] / a y T X.I | U P I ! D P S A T T T E I Q S u y P Q Q P ",
"^ I ) I F F e L ! Q P ! _ T D ~ r S P L T P r S u u D w.5.i.K._.y.#Xd.6.0.[ T ^ Y T | I P E ! I T ~ T L u P P Q T y G ~ P ! I P ",
"I E ) I A ) G I T ` T / E _ D A r S P u A Q u d W r.i.*.p.OX4X[.v.4X=XL.6.6.7.w.j d X.h I P R U _ E U L S u S u ! K a T | L T _ ",
"T ( I ~ I K H H K I _ / o.W ! y y S S r Q ! g -.6.*.&.G.;X2X).t.1 N.*X2X@X9.&.*.6.;.W T F u y K P T P I G S P q ^ Y L / ^ / _ Q ",
"T / I D A I F H S G A P I ! F S P T S F ! b i.*.&.8./.4X=X^.r.4 - v t.+X-X=XV.5.&.6.6.j / P S D _ P u S S T X.Q P P P / f / P L ",
"P L y F F D H F G G G ! S Q L E _ T ! T ( L 5.5.L.<X:X&X~.3.1 : > l v t.OX=X,X#XK.&.4.| P A I P L P S P L R s K K P / ! T I r K ",
"I A r S ~ t H A I ! I ! P S O.E I _ p i ] 3.a.%X>X-XXXB.>.2 4 C l >.v v e.~.*X-X:XL.7.h._ a a P L u s ! K T T y u K D T P P A K ",
"/ r S ~ H F A T ! A D ) H _ ` T Y _ ] 9.a.f.;X4X1X[.V.z 2 k q.q.l j.e.>.x 1.F.*X-X1X%Xf.a.3.W P a S S P y P T T D h X.S G S P L ",
"G P ! S J ~ ) I L _ T E ! ! / _ [ 9.s.p.L.7X=X+X).k.4 > C q.j.y.M l.l.j.1.c >.B.+X*X=X*XK.p.p.3.] ~ p u X.y D I ! A 0 L I / E A ",
"S ! K t F S D ) I L P E f P m 0.p.6.8.OX:X=X[.B.>.> 4 >.q.h.x.h.N c.c.l.j.e.C c n.F.&X*X*XZ.5.i.p.-.b p ! S t Q I r I .._ X. .K ",
"S t S F ) H ~ P H D H S H ! 2.*.&.9.XX=X&X).m.k 2 z ,.1.h.l.c.j.N D.c.c.l.z.y.:.v ,.F.&X;X=X^.8.&.6.b i u Q t S S u I P P T P I ",
"F P S r S A ! G t I S ! Q ~ b &.K.:X=X+X~.w.< < ;.,.,.e.h.j.c.j.N c.c.D.x.m.t.r.1.x c t.^.1X*X@Xu.5.W Q w T P K y S y u y u P K ",
"y I Q t 6 r ) G D P Q ~ [ -.7.%X=X&X).V.x , l >.,.1.1.q.t.h.c.l.N D.D.D.c.x.t.y.e.e.v z q.C.+X=X$XP.a.3.W +.a R s a a K i P K Y ",
"I F F y r S r t J A m 5.$.d.#X7X+X^.j.4 , c e.q.,.q.e.1.j.j.x.l.N D.c.D.l.x.j.t.r.r.e.>.5 v m._.=X=X%Xd.a.9.@.s i i P y h P I T ",
"T u u P Q / S D v $.$.$.L.7X=X+XV.:.1 : n 1.q.q.1.1.1.<.h.j.l.l.N v.c.c.l.l.j.h.e.y.y.y.v 4 c 3.~.+X=X@XL.p.p.9.V K y 9 T L ` P ",
"S S H P t i ' $.$.#.-.*X:X@X^.t.l 2 k l :.3.y.1.>.;.5 3 C h.h.j.N c.M.l.y.>.;.>.y.y.y.z.n M >.l ;.m.+X&X=XL.8.6.a.9.L A P u D P ",
"( Q S t F Q A %.#.G.:X,X+X~.e.1 > n e.k >.e.h.q.:.Z hXgXZ l h.j.M l.j.1. XnXgX:.q.t.y.t.C Z z.:.z v r.^.@X7X+X9.&.2.y r S S S Q ",
"X.L 9 e i G { -.P.3X=X&X~.:.> l 1.e.y.M >.h.y.q.z jXAXCXjXZ x n 4 :.1.].CXZXBXA.n y.t.t.C Z m.3.,.v v e._.&X=X$XK.4.V d a S P A ",
") S i e b 0.p.%X,X=X+X~.c 2 x y.e.y.t.M >.h.j.q.x gXmXnXBXVXnXhXhXnXBXZXCXnXhX!.,.y.j.k.C <.m.y.e.2.n v y.~.@X2X=XL.6.8.g u u u ",
"X.` m 7.i.f.>X4X&X).A.l 2 w.k.k.t.k.t.N 1.j.z.h.5 .XCXCXVXMXBXCXCXCXCXBXCXBXnXh.t.W.x.x.C <.M.t.e.e.e.2.x w.~.+X*X,X@Xa.i.5.g u ",
"n a.p.i.L.4X7X&X).y.> $ >.x.x.x.x.k.x.x <.t.x.y.x NXAXCXcXgXfX|.|.|.fXcXCXCXVX|.e.oX_.B.n w.m.k.t.t.t.t.y.>.>.V.XX-X=X=Xd.6.i.0.",
"s.6.4.XX5X=XXX^.Z 4 N l t.m.x.c.x.k.x.Z w.t.x.j.n gXBXNXfXC C n k [ :.g.cXMXmXA.w.oX@X+X<.q.c.t.t.t.t.t.z.x.y.>.k.^.*X=X4XS.%.6.",
"-.-.1X5X&X^.V.z 4 j.N.:.x.N.V.v.x.x.m.Z <.x.k.x.q.<.|.|.w.>.x.k.N D.D.1.l. XH.J.q.^.=X$Xy.M.W.k.h.z.k.k.n.B.B.k.n >.V._.-X4XA.3 ",
"Y ] *X*X~.V.>.l A.W.A.q.N.W.A.N.x.x.x.B w.x.x.x.k.y.n n w.x.m.S.Z  XS.A.h.>.1.z.h.~.:X$Xj.).*XB.t.k.k.k.M.B.S.B.k.l 1.m.F.;X].W ",
"/ Q O.b.V.n.c ,.!.Q.S.x.N.Q.A.N.v.x.m.Z <.m.x.N.V.C.x.t.A.N.z.M , Z A.A.S.A.x.x.k.~.;X@Xj.+X$XXXC.m.x.x.M.W.W.W.D.z x 3.M.b.U / ",
"F K r G ` w.2.3.Q.Q.W.A.A.W.W.W.N.m.m.Z <.v.m./.~.OX^.y.k , @ O   O * - 4 A.S.x.j.~.;X$Xz.*X7X@XoX_.V.x.m.W.Q.Q.S.;.c @. .s A P ",
"w A r 8 F P W g.].(.W.A.A.!.W.A.N.m.V.>.w.B.~.+XoXB.l = O O $ @ o * @ @ + - M M.x.C.:X#Xk.&X:X@XoX@X+X~.A.S.Q.Q.S.V E s y t I o.",
"! _ y 8 D T ^ o.(.].Q.Q.W.Q.W.W.N.v.m.[ j.+X+X;Xy.- + $ * @ $ @ o $ @ * * * O < j.~.:X;Xl.*X$X@XoX@X$X#X*X].Q.].A.R y D F f I ! ",
"K ! y P P P ! _ !.].!.Q.W.Q.Q.W.A.m.F.g.D.:X=Xh.* @ * * * * @ @ o $ @ $ * = = @ - S.:X#Xl.,X:X@XoX@X:X$X5X0X}.].b.s 8 y A h ^ Y ",
"^ Q y I u u u T !.].(.Q.Q.Q.Q.Q.W.~.XXc.A.<XM.$ * - * * * @ @ $ o * $ $ * * * = o , +X$Xj.,X:XoXoX#X:X:X6XiXzX-XR.q i P L s ^ T ",
"Q Q a P u Q u / R.[.(.!.(.(.Q./.).&X$XV.F.*X, X - * - * @ @ * @ o * $ $ * = = * =   x <Xj.,X,X@X@X@X:X=X6XiXzXiX{.i K P P Q ^ / ",
"y Q t t S ^ y U.!.].(.!.(.].].-X7X:X<XV./.l.X @ * * * - * * $ $ o * $ * * = = = * O * F.l.,X;XoX@X$X:X:X6XzXzXzX{.R T Y P / / P ",
"R ^ 7 t P T / Y R.].].].(.8X8X9X9X:X>XS.S.5   $ * = = = $ * $ $ o * $ * * = = = = # O B D.*X:XoX@X$X:X,XyXpXzXpX{.a Y Q 0 K Y ( ",
"T G r S G y O.! R.[.].].-XiXuX9X9X4X:X^.J.- o o = = = = $ $ * $ o * * * * = = = $ o O > l.,X,XoXoX=X:X5XiXpXiXaX'.q y y s Y ^ ^ ",
"! G t 9 S y s p R.[.}.,XqXlXuXtX9X5X:XXX> @ * # = = = * $ * * % @ * $ * * = = = * o * X B yX#XoXoX;X>X4XiXzXqXpXE.i s Y 0 u Q ^ ",
"/ I Q S U E _ e R.,X0XiXaXvXiXuXtX5X;XoX, O $ # = = = = * $ * % $ * $ * * = = - * o * X :.eX#XoX@X$X:X6XiXiXiXaXT.e P R q P X.U ",
"U Y S S y E E e E.sXdXaXaXbXsXtXtX6X;X@X> O * @ = = = = = $ $ % $ * * * * = = - * # * O <.eX#X#X*X:X:X5XpXzXiXzX@.i Q L 0 P |  .",
"L Q J F t H S i {.xXbXaXvXaXsXuXtX5X;X@X< O $ o = = = = * * $ % # * * * * = = * * # * X <.yX#XoX#X:X:X6XiXzXiXzX@.a P L T K R s ",
"/ Q p a y u H S E.bXvXkXaXvXsXuXtX5X:X#X1 O $ # % = = = * * * % # * * * = = = = * # * X q.eX*X#X;X:X5X6XiXkXiXzX@.i Q y / P S U ",
"..p Q / P t _ / E.aXvXkXaXkXaXqX9X6X:X*X4 O % o % - = = $ * = $ $ * * * = = = = $ o * X h.5XoX;X;X<X,XtXzXkXiXzXU.t / I u K Y +.",
"u t G A u r S p E.aXkXkXkXvXkXtX9XeX:X;X4 O * o = = = = * * * % # = * * * * = = $ o = X z.5X#X;X;X<X5XtXkXkXpXqXo.t Q ! G t s Y ",
"! I S G r S J i E.xXkXvXkXlXkXtXyX6X>X:X4 X * + * = = = * % * % # = * * * = : = $ # * X l.eX#X;X:X<X5XtXvXzXpXqXo.t u S y t u P ",
"/ E K ! L R S e Y.xXkXkXkXkXzXtX9X6X5X:X5 X $ # $ = = * * $ * % # = * * * = = = $ # = X D.eX#X;X:X4X4XuXlXlXzX0X_ S 0 R ^ t 7 P ",
"I / y P _ / S 8 Y.aXxXlXkXkXzXuX9XeX5X:Xl O % # * = = * * * % $ # = * * * = = = $ o = O M.rX#X<X:X5X6XiXlXlXzXqXo.A U U / L Y ! ",
"t P a P T I F y U.aXaXvXkXaXaXiXeX6X3X3Xk + % # $ * = * * $ * = # = * $ * = = = @ # * O M.wX:X:X:X5X6XzXlXlXzX0X^ T ! X.R ..^ s ",
"a s Y P 0 L L Y @.aXxXlXkXaXkXtXwX6X3X5Xx X * # * = = = * $ = $ # * * * * = = * $ # $ O F.rX;X<X:X<XwXzXvXlXkX8XK / Q a i / y y ",
"S I y A t t I A O.iXkXlXkXkXaXuXwX5X5X3Xx X % + * = = * * * % % # = * * * = = * $ # * O ~.<X:X<X<X4XtXzXvXlXxX.X^ ! I Q u P u u ",
"8 u G u S P D P O.qXkXvXkXaXkXtXwXwX5XrXC   % + = = = = * $ = % # * * * * = = * @ # $ @ F.5X>X>X:X5XyXzXvXkXxX.XP I Q S F S S 8 ",
"S i a y K I S r Q 0XdXaXaXpXpXtXeXwX5XwXC X % o $ * * * * * = $ # * * $ = = = = # # $ + ^.>X:X>X<X5XyXkXlXpXxX.XK _ r y u P I S ",
"! t F P L I Q r ~ qXaXbXkXsXaXiX6XrX5XwX<.  $ # $ * * * * * * + @ @ * $ * * = * # @ @ * ^.>X$X5X<X5XsXkXlXiXlX XQ Q S s P P P D ",
"9 u S P t S Q r G 2XaXvXlXpXkXuX6XwX5XeXq.  $ + @ * $ * * * $ @ O @ * * * * $ * o # @ $ XX>X>X3X6X5XpXlXlXiXkX{.a S Y Q S K ! I ",
"S P P r r ! P S d 8XdXkXkXsXaXtX<XeXrXeXq.  $ o @ $ $ * $ $ @ @ # @ * @ * * @ * # @ + $ OX>X3XwX5X6XzXxXlXzXxX'.y / 0 Q u y D P ",
"T ! E D I _ A a Q .XdXkXvXaXsXuX:XwX5XwXt.  + # # @ @ $ $ $ @ $ # $ # $ % % $ @ o + X % +X>X>XeX6X6XkXbXzXiXlX'.s T Q ^ ^ P G y ",
"o.E I D P P D y p }.dXaXdXaXsXeX@XrXwXwXz.. & ; o + o o   o . & ; o #     . . # ; & . ; +X$XrXeX6X9XxXbXzXyXxX'.a Q ^ / X./ Q _ ",
"U I ` A S ! y ! p {.xXkXdXdXaXuX@X5X5XrXc.y L L y y 0 w q y 9 9 h U P f w q w h K A 0 D @X>X3XeXwXeXzXxXzXiXxXE.9 Q ! / / / _ ` ",
"/ I ! P K D F ~ i '.xXdXaXsXsXsX@X>X5XrXv.( / T Q S ^ Q Q u Q y Y ^ P ( r u Q / T P S D @X$X3XeXeX6XzXxXzXyXxXY.G E P K / ! _ X.",
"/ / I Q I S I L y {.dXaXdXuXuXyXXX@X>X>Xv.p F T R y T P f P ! K u Q P r F S u P P A t T +X#X>X6XeX6XsXdXyXtXpX@.r ) F S G u D ! ",
"( I A r A H G ^ u @.;X*X2X`.XXXX<.<.~.S.g.K u / I T h T S P P y P E y ..E T P A y P A E M.B.^.^./.A.[.1X&X[.&X@.I ) f I ! S ! _ ",
"O.G F S t r S ~ G L W ) F A A F 0 A P D P T u I ) P ) L D D i u 9 Q y P /  .X.! L I / E L j j K L F ) W W I _ / I I H L D H ! F ",
"p G F A / A r S S S H H F S F 9 P ! D I ( ^ _ P Q I I D T D S y 8 y _ ! I E A ( ! ! ( T P A +.Q P ! P ^ G I ( ! T K F I P F S r "
};
