/* XPM */
static char *dog_house[] = {
/* columns rows colors chars-per-pixel */
"63 64 183 2 ",
"   c #1C0B05",
".  c #210E07",
"X  c #220F08",
"o  c #261107",
"O  c #2B1207",
"+  c #26120A",
"@  c #2C140A",
"#  c #31160B",
"$  c #33190D",
"%  c #371E11",
"&  c #3E2011",
"*  c #432413",
"=  c #472815",
"-  c #492917",
";  c #462818",
":  c #4D2D1B",
">  c #502F1B",
",  c #54331D",
"<  c #5E3B22",
"1  c #563523",
"2  c #623D24",
"3  c #644026",
"4  c #694226",
"5  c #674329",
"6  c #6A442A",
"7  c #724A2C",
"8  c #7A4E2C",
"9  c #7C512F",
"0  c #6A4931",
"q  c #754F31",
"w  c #7C5333",
"e  c #7F5639",
"r  c #7F5938",
"t  c #7F5836",
"y  c #7F5C40",
"u  c #A7391F",
"i  c #A9331B",
"p  c #B1391E",
"a  c #A83F28",
"s  c #AE3F25",
"d  c #85542F",
"f  c #825532",
"g  c #845936",
"h  c #8A5C35",
"j  c #845C3B",
"k  c #8B5E39",
"l  c #905E38",
"z  c #9F5237",
"x  c #AC462A",
"c  c #A74129",
"v  c #B14225",
"b  c #B94426",
"n  c #B34B2C",
"m  c #BB4C2C",
"M  c #B94828",
"N  c #BC512E",
"B  c #AA5A38",
"V  c #B65334",
"C  c #BC5232",
"Z  c #BD5935",
"A  c #B55C3A",
"S  c #BD5C39",
"D  c #B65D37",
"F  c #8D623C",
"G  c #92643C",
"H  c #98663D",
"J  c #96683E",
"K  c #99693F",
"L  c #B5643F",
"P  c #C34D2F",
"I  c #C14F30",
"U  c #C65936",
"Y  c #C45E3B",
"T  c #C45435",
"R  c #C7673E",
"E  c #8A5E40",
"W  c #8D6542",
"Q  c #8F6A4A",
"!  c #926641",
"~  c #956943",
"^  c #9A6D44",
"/  c #946C49",
"(  c #9B6B45",
")  c #9D7146",
"_  c #9E7249",
"`  c #9A7253",
"'  c #9C775A",
"]  c #A06E44",
"[  c #B46C46",
"{  c #A27145",
"}  c #A2754B",
"|  c #AA774A",
" . c #A4794D",
".. c #AC7B4E",
"X. c #B07C4E",
"o. c #BF7A4F",
"O. c #A67C51",
"+. c #AB7D53",
"@. c #B17E52",
"#. c #BE7B51",
"$. c #C46B42",
"%. c #CB6B43",
"&. c #C47349",
"*. c #CA7D4E",
"=. c #C77649",
"-. c #C77F52",
";. c #AB8156",
":. c #AE855A",
">. c #AE885C",
",. c #B58253",
"<. c #BB8655",
"1. c #BE8856",
"2. c #B1865A",
"3. c #B2895D",
"4. c #BC8A5A",
"5. c #B98758",
"6. c #9F8163",
"7. c #AE8960",
"8. c #A88666",
"9. c #B38C61",
"0. c #B98D62",
"q. c #BD9567",
"w. c #AD8C70",
"e. c #B9997C",
"r. c #B8967B",
"t. c #C98453",
"y. c #C38E5B",
"u. c #CA8D5A",
"i. c #C68556",
"p. c #D08857",
"a. c #C3905D",
"s. c #CD935D",
"d. c #D2925E",
"f. c #C69562",
"g. c #CB9561",
"h. c #CD9964",
"j. c #C69866",
"k. c #D29660",
"l. c #D49B64",
"z. c #D99D65",
"x. c #D89F68",
"c. c #D69F68",
"v. c #CCA06F",
"b. c #DCA46C",
"n. c #DEA367",
"m. c #CFA270",
"M. c #D2A674",
"N. c #DEA971",
"B. c #DDAE7B",
"V. c #DBA772",
"C. c #DEB07C",
"Z. c #E1A66B",
"A. c #E0A86E",
"S. c #E2AC74",
"D. c #E5B077",
"F. c #E5B37B",
"G. c #EAB67D",
"H. c #EBB97E",
"J. c #E8B075",
"K. c #B99A82",
"L. c #BFA187",
"P. c #C5A78E",
"I. c #C0A287",
"U. c #DDB283",
"Y. c #CBAD94",
"T. c #CCB099",
"R. c #E7B680",
"E. c #E7B881",
"W. c #EBBB83",
"Q. c #ECBF88",
"!. c #E8B781",
"~. c #D6BBA2",
"^. c #EDC08A",
"/. c #DFC8AA",
"(. c #E4CDB5",
"). c #E7D6BE",
"_. c #E9D4BC",
"`. c #EEDCC4",
"'. c #F2DBC3",
"]. c #F2E4CC",
"[. c #F7E9D2",
"{. c #F8ECD4",
"}. c None",
/* pixels */
"}.}.}.}.}.}.}.}.}.}.}.}.}.}.}.}.}.}.}.}.}.}.}.}.}.}.}.}.}.}.}.}.}.}.}.}.}.}.}.}.}.}.}.}.}.}.}.}.}.}.}.}.}.}.}.}.}.}.}.}.}.}.}.",
"}.}.}.}.}.}.}.}.}.}.}.}.}.}.}.}.}.}.}.}.}.}.}.}.}.}.}.}.}.}.}.}.}.}.}.}.}.}.}.}.}.}.}.}.}.}.}.}.}.}.}.}.}.}.}.}.}.}.}.}.}.}.}.",
"}.}.}.}.}.}.}.}.}.}.}.}.}.}.}.}.}.}.}.}.}.}.}.}.}.}.}.}.}.}.}.}.}.}.}.}.}.}.}.}.}.}.}.}.}.}.}.}.}.}.}.}.}.}.}.}.}.}.}.}.}.}.}.",
"}.}.}.}.}.}.}.}.}.}.}.}.}.}.}.}.}.}.}.}.}.}.}.}.}.}.}.}.}.}.}.}.}.}.}.}.}.}.}.}.}.}.}.}.}.}.}.}.}.}.}.}.}.}.}.}.}.}.}.}.}.}.}.",
"}.}.}.}.}.}.}.}.}.}.}.}.}.}.}.}.}.}.}.}.}.}.}.}.}.}.}.}.}.}.}.}.}.}.}.}.}.}.}.}.}.}.}.}.}.}.}.}.}.}.}.}.}.}.}.}.}.}.}.}.}.}.}.",
"}.}.}.}.}.}.}.}.}.}.}.}.}.}.}.}.}.}.}.}.}.}.}.}.}.}.}.}.}.}.}.}.}.}.}.}.}.}.}.}.}.}.}.}.}.}.}.}.}.}.}.}.}.}.}.}.}.}.}.}.}.}.}.",
"}.}.}.}.}.}.}.}.}.}.}.}.}.}.}.}.}.}.}.}.}.}.}.}.}.}.}.}.}.}.}.}.}.}.}.}.}.}.}.}.}.}.}.}.}.}.}.}.}.}.}.}.}.}.}.}.}.}.}.}.}.}.}.",
"}.}.}.}.}.}.}.}.}.}.}.}.}.}.}.}.}.}.}.}.}.}.}.}.}.}.}.}.}.}.}.}.}.}.}.}.}.}.}.}.}.}.}.}.}.}.}.}.}.}.}.}.}.}.}.}.}.}.}.}.}.}.}.",
"}.}.}.}.}.}.}.}.}.}.}.}.}.}.}.}.}.}.}.}.}.}.}.}.}.}.}.}.}.}.}.}.}.}.}.}.}.}.}.}.}.}.}.}.}.}.}.}.}.}.}.}.}.}.}.}.}.}.}.}.}.}.}.",
"}.}.}.}.}.}.}.}.}.}.}.}.}.}.}.}.}.}.}.}.}.}.}.}.}.}.}.}.}.}.}.}.}.}.}.}.}.}.}.}.}.}.}.}.}.}.}.}.}.}.}.}.}.}.}.}.}.}.}.}.}.}.}.",
"}.}.}.}.}.}.}.}.}.}.}.}.}.}.}.}.}.}.}.}.}.}.}.}.}.}.}.}.}.}.}.b M }.}.}.}.}.}.}.}.}.}.}.}.}.}.}.}.}.}.}.}.}.}.}.}.}.}.}.}.}.}.",
"}.}.}.}.}.}.}.}.}.}.}.}.}.}.}.}.}.}.}.}.}.}.}.}.}.}.}.}.}.}.a b s }.}.}.}.}.}.}.}.}.}.}.}.}.}.}.}.}.}.}.}.}.}.}.}.}.}.}.}.}.}.",
"}.}.}.}.}.}.}.}.}.}.}.}.}.}.}.}.}.}.}.}.}.}.}.}.}.}.}.}.}.m Z B A N }.}.}.}.}.}.}.}.}.}.}.}.}.}.}.}.}.}.}.}.}.}.}.}.}.}.}.}.}.",
"}.}.}.}.}.}.}.}.}.}.}.}.}.}.}.}.}.}.}.}.}.}.}.}.}.}.}.m m R a.+.y.t.Z M m }.}.}.}.}.}.}.}.}.}.}.}.}.}.}.}.}.}.}.}.}.}.}.}.}.}.",
"}.}.}.}.}.}.}.}.}.}.}.}.}.}.}.}.}.}.}.}.}.}.}.}.}.b b B t.f.+.7 G a.a.[ x v v }.}.}.}.}.}.}.}.}.}.}.}.}.}.}.}.}.}.}.}.}.}.}.}.",
"}.}.}.}.}.}.}.}.}.}.}.}.}.}.}.}.}.}.}.}.}.}.}.}.x n $.u.f.| 7 ; 4 G y.g.i.V x }.}.}.}.}.}.}.}.}.}.}.}.}.}.}.}.}.}.}.}.}.}.}.}.",
"}.}.}.}.}.}.}.}.}.}.}.}.}.}.}.}.}.}.}.}.}.}.}.}.R *.h.0.) 4 2 6 w 8 l ,.h.s.$.T }.}.}.}.}.}.}.}.}.}.}.}.}.}.}.}.}.}.}.}.}.}.}.",
"}.}.}.}.}.}.}.}.}.}.}.}.}.}.}.}.}.}.}.}.}.}.U %.p.h.4.F 2 7 F w F G f h +.j.g.*.R T }.}.}.}.}.}.}.}.}.}.}.}.}.}.}.}.}.}.}.}.}.",
"}.}.}.}.}.}.}.}.}.}.}.}.}.}.}.}.}.}.}.P C V &.g.a.;.w 2 9 G ~ j ! _ ~ h g { 4.h.t.A n m }.}.}.}.}.}.}.}.}.}.}.}.}.}.}.}.}.}.}.",
"}.}.}.}.}.}.}.}.}.}.}.}.}.}.}.}.}.}.}.s n &.g.4.^ 4 3 d F ~ ^ k / } ) ^ k d F ,.f.y.L x c }.}.}.}.}.}.}.}.}.}.}.}.}.}.}.}.}.}.",
"}.}.}.}.}.}.}.}.}.}.}.}.}.}.}.}.}.}.M S u.f.,.g < 7 h h F ~ _ y / } _ _ K F f d { y.g.=.Y }.}.}.}.}.}.}.}.}.}.}.}.}.}.}.}.}.}.",
"}.}.}.}.}.}.}.}.}.}.}.}.}.}.}.}.p M &.k.a.{ 0 < f h F F F ~ ) F / } _ _ K H G d 7 l <.f.i.R U }.}.}.}.}.}.}.}.}.}.}.}.}.}.}.}.",
"}.}.}.}.}.}.}.}.}.}.}.}.}.}.i i n t.g.<.l 2 1 f F F h 9 g W ) y / } / ! G G J G 7 7 g | s.s.&.V C }.}.}.}.}.}.}.}.}.}.}.}.}.}.",
"}.}.}.}.}.}.}.}.}.}.}.}.}.}.a A g.s...w 2 8 7 h G k g 6.' t F t W ~ O.e.` h J K f g f 8 K 4.g.#.V n }.}.}.}.}.}.}.}.}.}.}.}.}.",
"}.}.}.}.}.}.}.}.}.}.}.}.}.C =.k.g. .7 4 F F w F F t ' `.(.8.Q y Q 8./.].P.k G ~ f W G d 8 G 4.g.u.S }.}.}.}.}.}.}.}.}.}.}.}.}.",
"}.}.}.}.}.}.}.}.}.}.}.P U t.k.a.( 6 7 G J J t F J F ` _.`.`.).(._.].[._.e.! { ^ g ! ~ H h d G <.f.s.%.m }.}.}.}.}.}.}.}.}.}.}.",
"}.}.}.}.}.}.}.}.}.I m R d.l.5.W , 7 ^ ) ) K t F J F 8.{.`.T.L.L.L.Y._.[.Y.^ 1...g ~ ^ H H G h G ..f.h.*.C M }.}.}.}.}.}.}.}.}.",
"}.}.}.}.}.}.}.}.C n [ l.f.+.e q q G } } ) K y F ^ J ` ~.L.Q F r W W w.~.r.G y.s.~ { ^ K K K ] ^ G { 4.f.y.z n }.}.}.}.}.}.}.}.",
"}.}.}.}.}.}.}.}.}.B j.a...f j } ~ _ ;.) ) ) t J ^ ^ G G F J  .F _ O./ / ~ ~ 1.d.} 4...~ ^ ^  .+._ w G ,.f.+.}.}.}.}.}.}.}.}.}.",
"}.}.}.}.}.}.}.}.}.}.}.2.( f } :._  .;.'  .) y J J ;.,.K J Q r , 0 W / _ ^ ) 1.s...h.y.X. .^  .;.;.k 8 ~ +.}.}.}.}.}.}.}.}.}.}.",
"}.}.}.}.}.}.}.}.}.}.}.}.}.l +.:.;.;.;.;. .) F ~ ;.4.1.J < & @ o @ $ * q ) ) 1.s...h.s.u.1.| +.;.:.! w }.}.}.}.}.}.}.}.}.}.}.}.",
"}.}.}.}.}.}.}.}.}.}.}.}.}.}.7.3.:.;.;.;. .) F _ 4.1.8 & @ @ @ o @ O O # : F 4.s...s.s.s.s.s.4.3.2.}.}.}.}.}.}.}.}.}.}.}.}.}.}.",
"}.}.}.}.}.}.}.}.}.}.}.}.}.}.7.9.>.;.;.;.O.+._ 5.y.q $ # # # O @ O O # # # = _ d.+.l.d.s.k.l.M.v.0.}.}.}.}.}.}.}.}.}.}.}.}.}.}.",
"}.}.}.}.}.}.}.}.}.}.}.}.}.}.7.9.>.>.>.2.5.y.+.4.k # # $ # @ O + O # # $ # O : <.+.l.g.u.k.l.B.R.M.}.}.}.}.}.}.}.}.}.}.}.}.}.}.",
"}.}.}.}.}.}.}.}.}.}.}.}.}.}.7.7.7.9.0.j.l.l.#.+.; + $ # # # @ @ O O # $ $ $ o t @.k.s.s.l.l.D.R.F.}.}.}.}.}.}.}.}.}.}.}.}.}.}.",
"}.}.}.}.}.}.}.}.}.}.}.}.}.}.9.9.9.q.M.V.V.c.@.j # @ # # # @ @ @ # # # $ $ O o : } l.s.s.l.b.F.F.B.}.}.}.}.}.}.}.}.}.}.}.}.}.}.",
"}.}.}.}.}.}.}.}.}.}.}.}.}.}.9.0.j.B.F.D.V.z.@.> O @ # $ # # @ @ # # # $ $ # + $ E l.d.s.l.b.F.F.B.}.}.}.}.}.}.}.}.}.}.}.}.}.}.",
"}.}.}.}.}.}.}.}.}.}.}.}.}.}.}.m.C.W.E.D.S.z.<.% O + $ $ # # # @ # # # $ $ # + O j z.u.k.l.V.F.F.C.}.}.}.}.}.}.}.}.}.}.}.}.}.}.",
"}.}.}.}.}.}.}.}.}.}.}.}.}.}.}.G.W.W.E.D.S.z.<.* @ @ $ % $ # $ @ # @ $ $ $ O + O k c.s.k.l.V.R.G.C.}.}.}.}.}.}.}.}.}.}.}.}.}.}.",
"}.}.}.}.}.}.}.}.}.}.}.}.}.}.}.W.^.W.H.F.A.z.<.= + @ $ # $ @ @ @ # # $ $ $ $ O O F z.d.k.z.S.R.G.B.}.}.}.}.}.}.}.}.}.}.}.}.}.}.",
"}.}.}.}.}.}.}.}.}.}.}.}.}.}.}.W.W.W.H.F.A.n.1.= @ + $ $ $ # # @ # # # # $ # @ @ ! l.k.l.x.S.!.R.B.}.}.}.}.}.}.}.}.}.}.}.}.}.}.",
"}.}.}.}.}.}.}.}.}.}.}.}.}.}.}.W.^.W.W.F.S.n.y.- O + $ $ $ # $ @ # # # $ $ @ @ @ ( z.k.l.V.S.Q.R.C.}.}.}.}.}.}.}.}.}.}.}.}.}.}.",
"}.}.}.}.}.}.}.}.}.}.}.}.}.}.}.W.^.W.W.F.S.n.a.: @ O # $ $ # # O # # # $ $ # O # ( z.l.l.V.S.Q.!.C.}.}.}.}.}.}.}.}.}.}.}.}.}.}.",
"}.}.}.}.}.}.}.}.}.}.}.}.}.}.}.H.W.W.H.F.A.Z.a., O + # $ # # # + # # # $ # @ O # { z.l.z.V.R.Q.!.U.}.}.}.}.}.}.}.}.}.}.}.}.}.}.",
"}.}.}.}.}.}.}.}.}.}.}.}.}.}.}.H.W.^.H.F.A.n.g., + + $ $ $ $ $ @ # # # # $ @ + # } z.z.z.A.R.Q.!.U.}.}.}.}.}.}.}.}.}.}.}.}.}.}.",
"}.}.}.}.}.}.}.}.}.}.}.}.}.}.}.W.W.W.W.D.A.n.d.1 O @ $ $ @ $ @ @ @ # # $ $ @ + # | z.x.x.S.!.Q.!.U.}.}.}.}.}.}.}.}.}.}.}.}.}.}.",
"}.}.}.}.}.}.}.}.}.}.}.}.}.}.}.H.^.H.G.D.A.Z.l.< + + # $ $ @ $ @ # # # # $ @ + # | z.z.x.V.W.W.!.U.}.}.}.}.}.}.}.}.}.}.}.}.}.}.",
"}.}.}.}.}.}.}.}.}.}.}.}.}.}.}.H.W.H.H.D.N.n.l.< o @ @ # $ @ O @ @ # # # # @ O # ..z.z.x.S.W.W.R.}.}.}.}.}.}.}.}.}.}.}.}.}.}.}.",
"}.}.}.}.}.}.}.}.}.}.}.}.}.}.}.H.W.W.H.J.Z.Z.z.3 o o O O @ @ O + O O @ O O o + $ X.z.n.b.J.Q.W.R.}.}.}.}.}.}.}.}.}.}.}.}.}.}.}.",
"}.}.}.}.}.}.}.}.}.}.}.}.}.}.}.G.H.W.H.J.z.Z.n.5 . o @ @ @ @ O @ @ @ @ @ @ + + $ #.z.Z.A.F.Q.R.R.}.}.}.}.}.}.}.}.}.}.}.}.}.}.}.",
"}.}.}.}.}.}.}.}.}.}.}.}.}.}.}.G.H.W.G.S.d.n.z.7   + X + + X   + +   + +   +   % <.z.Z.Z.G.Q.R.F.}.}.}.}.}.}.}.}.}.}.}.}.}.}.}.",
"}.}.}.}.}.}.}.}.}.}.}.}.}.}.}.G.H.W.G.D.n.n.l...}.}.}.}.}.}.}.}.}.}.}.}.}.}.}.}.k.z.Z.Z.G.W.F.R.}.}.}.}.}.}.}.}.}.}.}.}.}.}.}.",
"}.}.}.}.}.}.}.}.}.}.}.}.}.}.}.D.D.D.N.b.<.s.f.}.}.}.}.}.}.}.}.}.}.}.}.}.}.}.}.}.u.k.z.c.V.D.A.V.}.}.}.}.}.}.}.}.}.}.}.}.}.}.}.",
"}.}.}.}.}.}.}.}.}.}.}.}.}.}.}.}.2.3.:.+.e / } }.}.}.}.}.}.}.}.}.}.}.}.}.}.}.}.}.( } +.+.2.0.9.5.}.}.}.}.}.}.}.}.}.}.}.}.}.}.}.",
"}.}.}.}.}.}.}.}.}.}.}.}.}.}.}.}.}.}.}.}.}.}.}.}.}.}.}.}.}.}.}.}.}.}.}.}.}.}.}.}.}.}.}.}.}.}.}.}.}.}.}.}.}.}.}.}.}.}.}.}.}.}.}.",
"}.}.}.}.}.}.}.}.}.}.}.}.}.}.}.}.}.}.}.}.}.}.}.}.}.}.}.}.}.}.}.}.}.}.}.}.}.}.}.}.}.}.}.}.}.}.}.}.}.}.}.}.}.}.}.}.}.}.}.}.}.}.}.",
"}.}.}.}.}.}.}.}.}.}.}.}.}.}.}.}.}.}.}.}.}.}.}.}.}.}.}.}.}.}.}.}.}.}.}.}.}.}.}.}.}.}.}.}.}.}.}.}.}.}.}.}.}.}.}.}.}.}.}.}.}.}.}.",
"}.}.}.}.}.}.}.}.}.}.}.}.}.}.}.}.}.}.}.}.}.}.}.}.}.}.}.}.}.}.}.}.}.}.}.}.}.}.}.}.}.}.}.}.}.}.}.}.}.}.}.}.}.}.}.}.}.}.}.}.}.}.}.",
"}.}.}.}.}.}.}.}.}.}.}.}.}.}.}.}.}.}.}.}.}.}.}.}.}.}.}.}.}.}.}.}.}.}.}.}.}.}.}.}.}.}.}.}.}.}.}.}.}.}.}.}.}.}.}.}.}.}.}.}.}.}.}.",
"}.}.}.}.}.}.}.}.}.}.}.}.}.}.}.}.}.}.}.}.}.}.}.}.}.}.}.}.}.}.}.}.}.}.}.}.}.}.}.}.}.}.}.}.}.}.}.}.}.}.}.}.}.}.}.}.}.}.}.}.}.}.}.",
"}.}.}.}.}.}.}.}.}.}.}.}.}.}.}.}.}.}.}.}.}.}.}.}.}.}.}.}.}.}.}.}.}.}.}.}.}.}.}.}.}.}.}.}.}.}.}.}.}.}.}.}.}.}.}.}.}.}.}.}.}.}.}.",
"}.}.}.}.}.}.}.}.}.}.}.}.}.}.}.}.}.}.}.}.}.}.}.}.}.}.}.}.}.}.}.}.}.}.}.}.}.}.}.}.}.}.}.}.}.}.}.}.}.}.}.}.}.}.}.}.}.}.}.}.}.}.}.",
"}.}.}.}.}.}.}.}.}.}.}.}.}.}.}.}.}.}.}.}.}.}.}.}.}.}.}.}.}.}.}.}.}.}.}.}.}.}.}.}.}.}.}.}.}.}.}.}.}.}.}.}.}.}.}.}.}.}.}.}.}.}.}.",
"}.}.}.}.}.}.}.}.}.}.}.}.}.}.}.}.}.}.}.}.}.}.}.}.}.}.}.}.}.}.}.}.}.}.}.}.}.}.}.}.}.}.}.}.}.}.}.}.}.}.}.}.}.}.}.}.}.}.}.}.}.}.}."
};
