/* XPM */
static char *fence[] = {
/* columns rows colors chars-per-pixel */
"64 64 29 1 ",
"  c #9C602B",
". c #9A6837",
"X c #9C6A3A",
"o c #A3692F",
"O c #A66A31",
"+ c #AA6C34",
"@ c #A56F3B",
"# c #A86F3A",
"$ c #AD7137",
"% c #A6713D",
"& c #AD753D",
"* c #AF783D",
"= c #B17337",
"- c #B2763B",
"; c #B5793D",
": c #BB7C3E",
"> c #C07F3F",
", c #9A6D40",
"< c #A67040",
"1 c #AC7541",
"2 c #B57A41",
"3 c #BC7D41",
"4 c #C07F40",
"5 c #BE803F",
"6 c #C1813F",
"7 c #BF8041",
"8 c #C48342",
"9 c #C88544",
"0 c None",
/* pixels */
"0000000000000000000000000000000000000000000000000000000000000000",
"0000000000000000000000000000000000000000000000000000000000000000",
"0000000000000000000000000000000000000000000000000000000000000000",
"0000000000000000000000000000000000000000000000000000000000000000",
"0000000000000000000000000000000000000000000000000000000000000000",
"0000000000000000000000000000000000000000000000000000000000000000",
"0000000000000000000000000000000000000000000000000000000000000000",
"0000000000000000000000000000000000000000000000000000000000000000",
"0000000000000000000000000000000000000000000000000000000000000000",
"0000000000000000000000000000000000000000000000000000000000000000",
"0000000000000000000000000000000000000000000000000000000000000000",
"0000000000000000000000000000000000000000000000000000000000000000",
"0000000000000000000000000000000000000000000000000000000000000000",
"000000000%10000000000000*0000000000000%100000000000001%000000000",
"00000000%78@00000000000*8500000000000038100000000000%77000000000",
"0000000029930000000000%789*0000000000-877%0000000000798;00000000",
"0000000&6999;00000000079698X00000000%89:9300000000028888*0000000",
"000000029996700000000%88968500000000*69588#000000007995670000000",
"000000039669200000000<89965*00000000&69:98#0000000079685;0000000",
"000000039966;00000000<79967*00000000&89>88%0000000076888;0000000",
"000000039698;00000000<88666*00000000&99998#000000003988820000000",
"000000039866;00000000<78966500000000&4>988<0000000039889-0000000",
"000000039996:00000000<77967-00000000&>9984#00000000:699920000000",
"000000028999200000000<78966*00000000&44988#00000000;9669-0000000",
"0000000;9888:00000000<38985*00000000&>9988%00000000;8978-0000000",
"000000X29899:X0000000@48886&00000000&89868O0000000%;9998-X000000",
"000<44-:8899:-8::3333-88966-:896::7:=>9996$3733377;;9898--83<000",
"0001442-8$&8:-65>6498-88O;9;:8999997&8:+88-9988788;58=-9;798&000",
"000188:-8OO82;8696869-77 =9-:8969996-8= 56-9996988;:9o+8;;88&000",
"000188:;8789:;9866888=89>96-:6::556:=98998-8466999::9689;;85%000",
"000011%;8889:%&&&&&&&@88966=%&&&%&&%*99865%&&&*&&&@:9889;+1*0000",
"000000028998:00000000@89999&00000000*88998%00000000:9689:0000000",
"000000028988700000000%88899*00000000-88998@000000003968930000000",
"0000000;8948700000000%89989100000000188898@00000000:988930000000",
"0000000;9988300000000%79898100000000&89898%00000000:888930000000",
"0000000;9888700000000%:9888-00000000168698%000000003899930000000",
"0000000;8988300000000%78989100000000-8889>@00000000:898830000000",
"000000039858700000000%7789770000000028889>%00000000:898830000000",
"000000078869300000000%76988100000000*8888:<00000000;898830000000",
"000,&&%:68895%-*-1-1*$85898*&*&-***%$79998%11-&&**%:79883#&1,000",
"000&88;:9439:-8578888-9:396=56:38997&89>9:;9834358;:6669:;>4&000",
"000188:;8Oo9:;5:57788-9: =9-79998797$9= ::-9999956;:6.+9::9>%000",
"000188::8-=9:;6557358-8:+:9-59998>87=9:+6:-6>38999;:6;*9::96&000",
"000%33-:9888:;8773373$9>889;:833:::;$9999:-3322:::-59699:-::%000",
"000000.399483X0000000@83449&00000000&9899:@0000000X;8999:.000000",
"0000000;9498200000000%86998-00000000&9899><000000003698620000000",
"000000029849;00000000#84944&00000000-8899:&000000003669630000000",
"00000003999920000000018499410000000029899:#000000003959920000000",
"000000039888200000000<84888100000000288983<000000003979820000000",
"000000039989300000000<84999&000000002989941000000003989830000000",
"000000028888300000000<88884100000000148884<000000003888820000000",
"0000000000000000000000@@00#0000000000#000@000000000@#00#00000000",
"0000000000000000000000000000000000000000000000000000000000000000",
"0000000000000000000000000000000000000000000000000000000000000000",
"0000000000000000000000000000000000000000000000000000000000000000",
"0000000000000000000000000000000000000000000000000000000000000000",
"0000000000000000000000000000000000000000000000000000000000000000",
"0000000000000000000000000000000000000000000000000000000000000000",
"0000000000000000000000000000000000000000000000000000000000000000",
"0000000000000000000000000000000000000000000000000000000000000000",
"0000000000000000000000000000000000000000000000000000000000000000",
"0000000000000000000000000000000000000000000000000000000000000000",
"0000000000000000000000000000000000000000000000000000000000000000",
"0000000000000000000000000000000000000000000000000000000000000000"
};
