/* XPM */
static char *floor[] = {
/* columns rows colors chars-per-pixel */
"64 64 53 1 ",
"  c #365E25",
". c #3B5F27",
"X c #375C29",
"o c #3C5E2B",
"O c #366123",
"+ c #3B6426",
"@ c #356A21",
"# c #3D6A26",
"$ c #3D652B",
"% c #3E6A2B",
"& c #3E6531",
"* c #3F6931",
"= c #415D2E",
"- c #435D32",
"; c #4A5E38",
": c #416B27",
"> c #41662D",
", c #48672F",
"< c #436B2D",
"1 c #486D2E",
"2 c #44712D",
"3 c #48722F",
"4 c #48782D",
"5 c #446532",
"6 c #496635",
"7 c #456C32",
"8 c #4A6D35",
"9 c #476438",
"0 c #4C653A",
"q c #466C39",
"w c #4C6D3A",
"e c #53673F",
"r c #526D3C",
"t c #467132",
"y c #4A7234",
"u c #4C7A35",
"i c #477339",
"p c #4C723A",
"a c #4E783A",
"s c #507237",
"d c #52733C",
"f c #52783C",
"g c #4F6640",
"h c #4E6C40",
"j c #516740",
"k c #546E41",
"l c #586F48",
"z c #4E7440",
"x c #537341",
"c c #5A7644",
"v c #557A40",
"b c #587B45",
"n c #587B49",
/* pixels */
":<d17t:%<tu4s:y1O>:7t#t65tt2:7<<ypr<17ticd0xni7>77iy88yw$%##7:yy",
"$:1<:375$t#<s<wa7$<yu#w8pay31yt18yp8tt#7vvwpipyyyyt60py1$<32318y",
"7:3:+O$::<<<t37pw<<t2:88s8yty<<8qwwytt<*776,$tpy88<>6ya:$p33y88t",
"ayy<$:#>78:4<#O#%7<:<7877wayry867787i5#u7566<yp8yd6788y8yt#ifp65",
"iprs,31<8pt%7y$+%*$<81:t7y60pdw0<<5%t85ipqk068y88t77wpwit7%57tyt",
"iys8:1+6yt78pr1u#%7587$<<1<58q867<t$7q6iwik8tsy88y867777t%2y6y87",
"8pss,118wfdars1>#<5$5t#77t#7wp<<<7zq7t7p5wd08760dd067%7%i65iw8wp",
"wp8y163y78sskr8:%7%#tt:<<#*t087<655&*6yywy6q<<<5w8681#7$i7qpwpdy",
"pp6<1111<3<888<<78<,y<*7t77t7t7y6p85>,7ww6rwy8<7p8#<7qz7777p6y70",
"66>:><1:37331t6rrry8s7*77<<tt77752p6,6w;ersf865757<185&557yyw7$5",
"8<$14:118y8y1yfr8s6:7:<7$yw87y2p7#ti<7=5rpwki777855i6ww<%58r78<5",
"y$<43<<68<8sydfd8s8<8:wi7$7>w7$1u21y$$%*768tt%737<<757ww76w83266",
"t78:448s68wssysdi8y851713$<7i87<tt<$$$%u7-6t<u86tt22d<58y>=qypw5",
"1t7#<18s868w>1yap8>,3i7>#<$ty8<$pp75-5<5aww8>>7>67<%t7#t7$6addj5",
":#<:y3y8y8118ysfy####<ut2tiw77y<*7y757<$qpxxy78wpw<%%7#<<:867i88",
",<1$<<33:11yyy:73:5<$%t7wa6a67ppyuyy1><wy6w5yyyyw8t7&76q$<#*$%65",
"%w4+O+83<38y875#2y%i7+#114%i757ayp81<8sd727ttcd8pw809pqq***&&55w",
"7:>$#1##413<:<8$:a1wd7$5yu%q8pap87d87w8ptii%tfxiy78wpqqq&$*o5q8q",
"w<%77q<:<88:>:d7::11pw<5221w8a8yt8y78qpw8tt%*7667$7yi%*7$$&$q6f8",
"<2t7:<:3yt33yy78y:+O@%<2:<7757wp88y885777y5#u6506#ypt%iu*X$*t<11",
"pt1$:t$888y17:2$+2#O$#%$5y<#t5t56wdw0<<<%yq5wwwr678yt$126qo$<<<t",
"d5++$338168=>$<..1+1u$%768t$2<3%68w871:q$776iwpxwyw7#$5<%5917<7%",
"p1#O 53328118$t::,>8$$<7:5t$#t2%7wr:<76zitt7p6wa08875*5&&77y><<%",
"da2O##>y:sd3<<1>1118#<5%#t7#27%*7677785$&56iyi76w88<tt*&q$>8<#.>",
"1yy<%%7t*t3<6313y18<788<,y><7t7t7827tqi85<57w88rr5y7*t*q&o6t#3<1",
"81<#+%%tp7<7dy31s388rrry6a7<%775t87<757ww<6r;rkddiw7iiqqq$77$y1y",
"8#5:$+$ut278py183,8br8s7:8$<t$yw67y2i8#tp<7-0rsdkw7ypzz&q>$778y8",
"377<%#%7t#502:<8s8ffr8a661>iw<$t<8751t228$##>888w8<tipa7&>$7t78u",
"yyy%$%t57itq58<y88ypdp8y157773$%7p6<#tt<>$$%8756w<s8<pp5q557y76p",
",5#<$$:<$tty3y6y:1yspa8#<3t7<#27ty71$piq<-,%ir5k6>57<y88iw8t75,y",
"o<+O#<$>111pty888wyyfp#%:7711:<tp%7i5<7y756788pkpy687p8t6785>>8d",
"6y$ 7qdt778y<8swywy$t<%%%i7<<8yta7<ipyayy1<<8aprdt8>7wwt6&><>>8y",
"qy%<*7tittay<<8y36q$$#<7%%$$<1i%i657yyy877<6s7tqkq677iz00$X%>5qq",
"tt*7%#77%t223y8<#<665%67&77$<tu%t6apy7<6ytt78yyqqq7%%600g$$76*ih",
"77*t%t<t*52<1877<>>-057*5<77<%#387yw7<*57<<77<<iipt%5w55q>5787ip",
"&t##*a5bp31u68<t8,5w87iy%<<x%2:67q7w85#t<t7y7%2ttq*5$$q6qqq66iit",
"qt@#7qpyu81:tt:#771yw7$7&q<87:t7$<5w0>7i><8<%%7tq7&&*5759qq*&5ia",
"w2$%3>xypfy##2t<<y72y75$758>$>1: Xq85>y78$157%768ig55757w5*&**ii",
"p<#$<>12yt76#1y3:wwi<#77y77<$$77q%87<58>i75ti$$>5tlzp655o1&5$$i7",
"p8t>6ry:2#tx>8t>17ty5#<8yit><*tt$777<578wy#765>>7wwq5qq5%%q5Xqah",
"q7*%>0y::#<p8885$7t7<#8w7%57#55#ywttt#<225#>59557q5t555<q$76$5rg",
"8i42#y11817pp8t%$$7t<%$5q#72%pq$88,t3<y:#t71$-qwwwp77777*776q79q",
"pi%%%2t88ypad77%$>8<:77y75<:<yy<$<587<ut:t<$#<5q7ty<%t7<%775i75w",
"p24p7:ydy687y<7t$%&765y8557<tt7%57tw7<%i<>$$$t75577yp87i3<tq<7qh",
"2#2<%%7tt76%7<i%#%%<t7t$ttay7ww7i<i8<#7a77-5>17zww<$t><7%<3t:%*q",
"y672$#32%3777>7*%%t<$wq72:338app7y77p7577y<65%%pply668sw75#5<##7",
"pw7y69#$<1%$$5****7#$tt518y18vrw<ii67apyuy8<%wy8w0ya8yywtt&57%#7",
"8i57wp%+<<$$tit*tit777%<<6s1fcdy<6y57pyyw8<tyd8777tscwqd860wqq7i",
"%t*786:5iy$$7<7y7ppt67%781<7yydttt88ua87ws<68yi7pt#avzw77wypqwq*",
"5*q7585ww<<77#p77tp878:881%ttyy<2y6yp8y8y788pwrtt%**t68$>ai7&i*&",
"*7$<#:887<yi7$<5tt25<6:4tt%5i2<$ti578d88yyq5777y7$yy650$ty8t%t#%",
"O%t#:8<788w8<##<%7ipry3:#%tw677&7%1<870wdrw51<%7w77www0878t<$5<O",
"<%7%68<$<;87#277$7t7ut31>>ttq*5&7+<:t:57w858:75*q77ppkdpyw%$#t7<",
"y##567t#<<8t73y75<5#%:7y75#1$$$*y<%2i%%8d7:15wa7t78w5a06tt7*778y",
"+#5<%72$#%71,875<7<tt3187&%<<tiqt<<<%%q8777665$q58yyw5pw8577758y",
"<57%#t7%7t<$77$tts887y<8tq785ipp7*5tt57877t7i86%75yww8p06i$t%><8",
"w8r<6s>*qiq5i77t<438ds#777t77tpw07*7%<tt7<t57tw6,0r;kdddy8titt7>",
"rrs1y8<<t<tttt5<831sfy<7$577i%i7w777%p8<it3p#2p8<5-qdrxdwtwzzitd",
"w8d113$t75t7t<#18y1dr8887t7%%%%*qpai$7,577<tt<t<$:$1r88w53ypppuv",
"dwy67<>y75<7p8<y81688uiw7%ttt*7%qt62:$7yw7%%t<:$$$y<5667yy77aydc",
"pp8y777q772y8y8878w8y3<wq<q8>7y6775<<57t8:%6a7755$7p88w5>8<<t:yy",
"up>+<33t1ttw8$<1i7>1y7%p6w6w81<$*w*aww7>$15875i77>8iy80pss,617yd",
"fy::#$ty37f4>#::<ut2tw7ty8s66<$&$<&7wkxy58ydq50&t1yp8ydp88y1138<",
"2<:>8:$51:ty:<$+<81wpip878y,y1<$O%sy8r7uyfpi65z7788ytyps81:6111O"
};
