/* XPM */
static char *spike[] = {
/* columns rows colors chars-per-pixel */
"64 64 228 2 ",
"   c #150E0C",
".  c #1D2B17",
"X  c #1D3213",
"o  c #192A0E",
"O  c #222C1C",
"+  c #22321B",
"@  c #293C1D",
"#  c #243D17",
"$  c #282A24",
"%  c #2A3523",
"&  c #2D3A24",
"*  c #32392A",
"=  c #3E3E3B",
"-  c #383932",
";  c #2C1415",
":  c #5D1A21",
">  c #2A441D",
",  c #2C4C1D",
"<  c #264318",
"1  c #2C561B",
"2  c #325A1E",
"3  c #34631E",
"4  c #2D4522",
"5  c #2D4E21",
"6  c #324424",
"7  c #324B24",
"8  c #36452A",
"9  c #354C2A",
"0  c #3A4C2C",
"q  c #38432D",
"w  c #345423",
"e  c #355C23",
"r  c #3A5D25",
"t  c #355229",
"y  c #3A532B",
"u  c #3C5D2B",
"i  c #385928",
"p  c #3C4C33",
"a  c #3D4635",
"s  c #3C5232",
"d  c #3D5D30",
"f  c #366322",
"g  c #3B6426",
"h  c #3C6B25",
"j  c #3D642B",
"k  c #3E6A2A",
"l  c #37622A",
"z  c #3E712B",
"x  c #3E7226",
"c  c #3D6931",
"v  c #425B2E",
"b  c #424B3A",
"n  c #435D33",
"m  c #47533B",
"M  c #465936",
"N  c #406A26",
"B  c #42652D",
"V  c #436C2D",
"C  c #486C2E",
"Z  c #45662A",
"A  c #44722D",
"S  c #49722E",
"D  c #45762A",
"F  c #456533",
"G  c #496535",
"H  c #456C32",
"J  c #4A6C34",
"K  c #4C653A",
"L  c #466C39",
"P  c #4C6C3A",
"I  c #456739",
"U  c #516D3C",
"Y  c #50693A",
"T  c #467233",
"R  c #4B7334",
"E  c #4B7935",
"W  c #467239",
"Q  c #4C733A",
"!  c #4D7A39",
"~  c #517235",
"^  c #52743C",
"/  c #547B3D",
"(  c #527C34",
")  c #6D3D40",
"_  c #4A4945",
"`  c #514D4C",
"'  c #4C5942",
"]  c #555B4C",
"[  c #525749",
"{  c #5B5C54",
"}  c #5E5C59",
"|  c #5C5655",
" . c #635E5B",
".. c #526542",
"X. c #526E42",
"o. c #58674B",
"O. c #4C7640",
"+. c #4F7940",
"@. c #537441",
"#. c #597442",
"$. c #5A7B46",
"%. c #5D6356",
"&. c #4F6F40",
"*. c #63625C",
"=. c #646A5B",
"-. c #657359",
";. c #617C4D",
":. c #645F60",
">. c #656361",
",. c #696564",
"<. c #6B6A65",
"1. c #6B6A68",
"2. c #716D6C",
"3. c #736E61",
"4. c #74716E",
"5. c #74796B",
"6. c #767472",
"7. c #7A7573",
"8. c #7B7B74",
"9. c #7D7B7B",
"0. c #7C7479",
"q. c #6D7464",
"w. c #BC1726",
"e. c #AC1424",
"r. c #99292F",
"t. c #B02D39",
"y. c #C51727",
"u. c #D81C2E",
"i. c #CD2230",
"p. c #E4152D",
"a. c #90403C",
"s. c #A84D3D",
"d. c #AC3E48",
"f. c #FC374A",
"g. c #925056",
"h. c #845E62",
"j. c #837D7C",
"k. c #8C7874",
"l. c #936F70",
"z. c #E27457",
"x. c #518039",
"c. c #7A8171",
"v. c #78806C",
"b. c #6A8457",
"n. c #84827D",
"m. c #818577",
"M. c #97977B",
"N. c #AB8F66",
"B. c #CB9B65",
"V. c #827F84",
"C. c #7D8684",
"Z. c #868383",
"A. c #898484",
"S. c #8C8A85",
"D. c #8B8A89",
"F. c #8D8488",
"G. c #938D8C",
"H. c #94898B",
"J. c #96918E",
"K. c #98938F",
"L. c #969292",
"P. c #9B9494",
"I. c #9E9A96",
"U. c #9D9B9A",
"Y. c #9A979C",
"T. c #92908F",
"R. c #A39D9A",
"E. c #A19695",
"W. c #AA8C8B",
"Q. c #A6A19D",
"!. c #A8A69B",
"~. c #A59EA0",
"^. c #A4A3A3",
"/. c #ACA4A3",
"(. c #ADABAB",
"). c #ABA9A7",
"_. c #B3ACAB",
"`. c #B2A8A6",
"'. c #B5B1AE",
"]. c #B9B2AF",
"[. c #B4B5B4",
"{. c #BBB4B3",
"}. c #BFB9B6",
"|. c #BCBBBA",
" X c #C1BAB6",
".X c #C4BDBB",
"XX c #C0B7B7",
"oX c #C6A7A9",
"OX c #C5C1BE",
"+X c #C9C1BE",
"@X c #C9BFC1",
"#X c #C1BFC0",
"$X c #C3C2C2",
"%X c #CCC5C3",
"&X c #CDCDCB",
"*X c #CFCBC7",
"=X c #D1C9C6",
"-X c #D4CCCB",
";X c #D4CACB",
":X c #D6D1CD",
">X c #D9D2CE",
",X c #D8CED1",
"<X c #D3D3D3",
"1X c #DDD5D2",
"2X c #DED8D5",
"3X c #DCDBDB",
"4X c #E1D6D5",
"5X c #E2DAD6",
"6X c #E5DDDA",
"7X c #E8DFDD",
"8X c #EAE2DE",
"9X c #E5E1DD",
"0X c #DDE5E6",
"qX c #E4E3E4",
"wX c #EDE4E1",
"eX c #ECECEC",
"rX c #ECEAE6",
"tX c #F1E9E6",
"yX c #F4EDEA",
"uX c #F1E6E6",
"iX c #F7F1ED",
"pX c #F1EFF2",
"aX c #ECF6F5",
"sX c #F3F3F3",
"dX c #FAF6F5",
"fX c #FEFEFE",
"gX c #F4FEFD",
"hX c #EEECF0",
/* pixels */
"A C ^ V H T N j V J x.A R N R C 3 j V V T g R H F l 2 3 r { `.%.N ^ Y V V I T R $.^ F @.b.z F C H B Q R P P V J u k V N C V T R ",
"r h V C V R J B j A h V / N K ! T j B R ! h P P B %.n.-.' `.iXP.9 T ^ J A E k k $.+.P U W Q R T W R T F K ^ R C l V T D V V Y S ",
"A j S N f 2 f A V h V Z A V H ! P B B A x V Q T b ,XtX5X>X5X>X].0 ^ P P A W k j F R F Z i W R R P G V j G T ~ V j E T V C R J A ",
"! R J A h N j j B ~ V D V k f l k H k D B C w w y ~.5X7X6XR.E.-XM A J H W j h ! F B G G h ! P H H @.V C J T R V R R h T / P G F ",
"W Q Y ~ C ~ C F P ! T l J R g g k c h F / 0 A.6.> t { 3. .l.`.8X-.3 H k R J B W @.J X.K J G T C J A F J L U Q R T V k j H R W T ",
"W J ~ C Z Z f G R A H R ^ P C ( g k F j , [ 7X7X=.2 h < 3.M..X8XXXo.l l F L H W L W X.P J ^ T P P R P F V T F W L j A Q F R R B ",
"J P ~ ~ Z R A J P / U Q U ^ C v Z k 0 *.8.P.4X-X4X5.7 S.E.j.2.`.8X4X<.i W T J Q G H $.M F T G K ~ ^ ..G V V B k R H H L X.G P ^ ",
"P ! P R J B S R B J ~ ^ #.Y T h Z 2 2.dXtXyX.X .7.E.`.+X`.uX.Xj.5X1X1X[ e B ^ Q J J J L N k j F H P Z J V k H e J L H P W Q ^ A ",
"Q R P B Z J V C V A B V J T Z B H J a F.~.j.& *.=X-X6X>X:X=X-XK.5X>X7X{.%.%.w v ! J U P P T V C Q J k V H K @.H T H H Q F R H K ",
"F F B k Z C S B S H S R V T J U ^ U J , 0 r w Q.6X>X5X X&X{.}.%X5X1X4X>X|.yX$X>.6 U @.~ H C F H G H B C J I j H F H R R P F l F ",
"R B g A S x A C P T J R J A / U J ^ F A E V u ^.OX+X1X^.fX[.'.6X4X>X1X>X'.gXfXfX~.& P @.W F H J F V H W F P P j j F H U H T Z Z ",
"R g V R S N Z J R Z C ~ S ^ #.U J ~ J Z C Z J L.qX{.+X$XfX(.}.5X>X>X7X%X[.fXhXsXfXY.< E T j V H H V j H j H Q K C G X.V A B J I ",
"T F R Z D D P ~ G ~ Y ~ R R ~ Q R J R J H V B Z.3X^..X3X<X,.9X1X7X7X%XJ.#XgXsXsXdXhXb H k / P C T R A k @.j C J R B u G J ^ P F ",
"V R F x Z J C ~ P G J U n V R R P C j Z A W k 5.Q.1.>XhX^.= T.6.j.A.(.<XsXsXsXsXsXdX%.l B j A u H H j A R V h T H g J @.^ ^ ..Z ",
"N h V j R S E T C C A V T R ~ $.P j h h k V T c.D.` I.$XY.0.qXqX:X).3XfXsXsXsXsXsXdX1.K R F J R ^ L V h k H k A H h J H H L J J ",
"Z H V h C Z T A N H J T J ( 2 T A h C V g j ' C.1.D._ [.<XsXfXfXdXfXeXpXsXsXsXsXsXsX=.c x.Q J R P F A H d J H F l B g z j H L j ",
"j P R 3 3 j P A V T J ~ T H F h A R B R T < V.^.1._ $ <XfXeX0._.dXsXgXsXsXsXsXsXgXqXs , w X.$.K ^ X.F G I P L L c c H c u V F L ",
"J N j B h V h N D C S Z V V J j V / V U ^ b pXU.^.Z.aXfXdXfX=   |.dXsXsXdXsXsXsXfX6.= j.6.b 7 P R H J J ! L K H c l H j F I J L ",
"P V h H J J V N V P C h j N ^ Z g N R A 5 Z.fXqX(.|.[.<X0X9.  - &XsXdXpXpXhXsXfXD.6.6X8X8X4Xj.@ J l H R T l H T l l c l L F / J ",
"V V A H h V N V R A V A T R C P R h < -.>.).fXsXdXeX3XC.; : u.g.gXeXqXfXfXfXfX(.8.wX1X>X>X1XtXH.@ k E P W k H E H i j B H V C J ",
"E R V j h T B J J J R C H B A Z 2 6 G.tXQ.9.fXdXsXsXfXoXw.f.y.E.fXsX'.Z./.R.H.| 1X1X1X1X1X1X>X8X<.w P T T B V A I c v j V V V T ",
"@.F r f j A D C Z K Q v Z r A 2 * {.wX>X2X4.L.0X0XeXfXoXy.w.h.aXpXgX3Xe.: U.].].5X1X1X1X1X1X1X5X@Xy ^ J g g H H j H G V H C H j ",
"R C k 3 e B T S h J C C R j S 0 }.7X>X1X1X4XU.j.t.W.gXdXW.W.eXsXdXaXg.z.N.1X1X1X1X1X1X1X1X1X1X>X7Xc.k T k c H d F B H ^ j V V k ",
"#.~ V 3 h B B ^ N ^ ^ A V A v R.wX:X1X4X>X1X8X:Xd.y.h.$X0XfXfXdXaXl.u.s.!.1X1X1X1X1X1X1X1X1X1X1X5XS., V Q H k d H k g H C g e Z ",
"B T R J k A H W B H A Z J w m.6X>X4X1X1X4X>X>X9XK.w.i.r.t.l.^.S.) y.y.h.3X4X>X4X1X1X1X1X1X1X1X1X1X-XH.* w W c H c u J T j D Z J ",
"R T B h h w 4 l ! J V T 8 A.6X1X1X1X1X4X-X_.+X_.=Xk.l.B.p.u.w.r.B.g.n.9X5X1X1X1X1X1X1X1X1X1X1X1X1X1X8X.X_ < O.W I d H J j R R C ",
"B 3 B A , >.@X{ g A J @ Z.8X1X1X1X1X>X6XI.Q.pXdX`.+X!.l.g.d.d.g.M.'.2X1X1X1X1X1X1X1X1X1X1X1X1X1X1X1X<X5X6X,.. L L B e k H J S J ",
"Q S.M V 7 R.yX%X0 D > 2.8X1X1X1X1X1X4X=X1.3XfXfXdX`.OX>X&X[.).[.OX:X$X{.>X1X1X>X1X1X1X5X1X1X1X1X1X1X1X1X1XwX2.. H k H H T V P E ",
"b.tX~.4 , J.8X5X5.f ] 5X1X1X1X1X1X1X8XQ.8.fXfXfXfXdX:X|.$X:XqXsXfXfXfXsX+X9X8X6X5X5X=X X8X8X5X5X1X1X1X1X1X1XwX .4 I j H T C M ^ ",
";.:XwX*.% { .X7Xc.8 %X5X1X1X1X1X1X:X8XJ.D.fXfXfXfXfXfXfXfXfXfXfXfXfX<X).n.J.Q.'. X%X%Xj.} Q. X-X2X1X1X1X1X1X1X1X- G R T W B Z R ",
"-.1X4X=Xj._.R.>X.XQ.6X1X1X1X1X1X>X7X4X{ A.fXfXfXfXfXfXfXfXfXdXfXsXZ.6.R.]._.K.j.2.<.<.2.2.A.Q.%X5X1X1X1X1X1X>X8XT.@ ^ F j h J #.",
";.>X1X4X-X-X9X>X5X6X1X1X1X,X1X6X7X`.o.# 9.fXfXfXfXfXfXfXfXfXfXpX8.^.8X8X6X6X8X8X6X5X5X6XwX8X6X5X1X1X1X1X1X1X1X2X-Xb j V F u J R ",
"7 j.wX>X4X1X1X1X1X1X1X4X5XwX4X`.} 8 P , } eXfXfXfXfXfXfXfXsX$XD..XwX>X1X1X1X>X>X>X1X1X>X>X>X>X4X1X1X1X1X1X1X1X1X1X_ 1 k C u Q L ",
"R , P.wX>X1X1X1X1X1X1X:X[.Z._ # 1 C J v - $XfXfXfXfXfXfX$Xc._.=X5X1X1X1X1X1X1X1X1X4X4X>X1X4X1X1X1X1X1X1X1X1X1X6X{.. l W F I W K ",
"L T 4 J.8X1X1X1X1X>X5X}.0 w u R C V B F 8 7.sXfXfXfXfX|.1.5X6X5X1X1X1X1X1X1X5X+X X5X1X4X4X4X>X1X4X1X4X>X1X1X5X2Xb , F F H W W Q ",
"j T h 2 c.4X1X1X1X1XtXj.r ~ V A J B F Y B a @XfXfXfXsX,.>XQ.=X1X1X1X1X1X4X=X1XA.=X6X>X:X>X>X1X1X>X1X>X>X1XwX;X_ 4 X.L R F W R W ",
"I R 3 x g q.1X1X4X-XR.0 A J k g F H V ~ ^ w F.eXfXfX<XJ.J.I.7X>X4X5X4X>X5X.X4.n.R..X7XwX7X6X4X4X6X9XwX8X-Xj.$ # Q L I W B H H O.",
"W A h B S w {.5X1X=.# j D A V V V R k A Q g ] #XfXfXfXA.,.9X>X5X9X+X1X>X7X/.n.tX/.% { j.~.XX%X=X.X_.D.| $ o y ^ P d j j j c W Q ",
"W A k i V i .X6X%XQ.4.6 h H Q A V P P ! N k 0 n.0XfXfXT.J.8X8X.X!.S.+X4X8XG.`.tXL.2 g , 6 % % . O O + 4 H Q K B u S c H i c W T ",
"Q J T H Y b {.5X1X7X5Xb g R V B V V J W V N j _ ).sXfXD.Q.yXH.C.hX/._.5X6X,.%X6Xo.V A Q t s 7 =...F #.Q n F H F k k V I t H @.L ",
"G H T k F 0 j.tX1XtXR.8 Q J J Z j V H H V k T y >.%XfX&X} >.D.dXfXY.+XiXS.7.8X%X<.t N 7 j.;X{.1X,X' l H H F B c I j H F l B ..X.",
"G W D N h D 6 H.;XP.* J ! J T c l j H A k V j B y 0.qXfX3X<XfXfXfX'.R.S.*.>X5X=X>XJ.< v.8X7X7X1X6X[ L H H H H A j W J G P H I F ",
"Q E z c j V C 7 8 4 H / ^ Z H k r B L A B H J R H p F.yXfXfXfXfXfXdX|.Z.>X5X1X4X1XwX} J.yXR.D.wXV.& ! V l R H B B B H j W W B K ",
"Q A A W H h ~ $.R U J B W k H T B k B H J B R J c j a P.dXfXfXfXfXfXfX&X-X1X1X1X>X5X X6.%X0 &.| 4 S H R ~ J Z W A A W J j F L @.",
"k x A Z k h B T k F H H B H ! h f z k V V H W i V ! V a L.sXfXfXfXfXfX#X-X1X1X1X1X1X4XJ.m.3 H L ^ R B j R j F J B B A T D h j L ",
"J J F A g V A A A T H H L u H c h A V V j P H W R , K R.J.U.qXfXfXfXfX.X>X1X1X1X1X1X6X`.m A c ! P o.R C H J Q L H k k A j h k H ",
"Q P F R F I k h V A B r H H k c c c V h j H R j @ 8.:XwX1X.X}.%XeXdX3XOX5X1X1X1X1X1X4X=X8.6 B ~ X.G T R J R R K A R n F W k 3 T ",
"W Q j H U ! B g B C h l T H H T F W W H V J f % ~.wX4X>X1X5X5X;X}.}.OX1X1X1X1X1X1X1X1X4X8X].b # W H T @.#.J I @.J C K K L H I R ",
"j V H L P C Z H L T g j k A C J H ! &.W G B & {.wX>X1X1X1X>X>X5X7X7X8X5X4X1X>X>X1X1X1X1X>X6X5X<.. T h Q $.Q L H H P R O.I Q Q c ",
"H j L T r K Z L P V k R L l / F Z T E G V 0 `.8X:X1X1X1X5X8X4X=X}._.]. X-X6X8X5X1X>X1X1X1X>X1XtX0.X H j T F J j B E T H l O.c l ",
"V H l B x h C J H A T L H r j V W A k F j %.6X>X1X1X1X4X.Xn.o.p p 9 9 0 m %.A.XX6X6X1X1X1X1X>X>XwX:.e ^ F F Y j A Q J A k H j V ",
"f k T h V J F T P J Y J h h j T j H W / ~ m =X5X>X1X5X`.0 j l j W z R V V e 6 q =.].6X6X1X1X4X>X5X.X0 ! K P K J F R T V B H k 2 ",
"B l k k H P V g V M K J h A J F j H V c E 2 { 6X5X>X>X5X8.w O.c H g V k S B H J u y 8.+X>X4X1X1X5X@Xs Q R X.U ~ L Q h j k T F V ",
"R h B F F J A j A k R T H A R H B t p b ..o.b  .%X7X1X1X5X*.X H T Z j A W z k J @.~ 1 %.5X>X>X>XwX6.r ^ F ! K G R H H j T H J S ",
"f k H H j V A g h k C V C T V B M ` >.Q.2X3X1X].j.R.:X1X1X6X*.# R V V V B k H J P 2 8 {.6X>X6XwXZ.6 / R P B Q L J k H H V F J C ",
"V F V h j R H V H T B g P H r W _ 7.1X/.H._.1X6X5X].+X5X1X1XwX| 4 T B T W H T B 7 %..X9X>X5X.X{ o 2 t y B P @.F F ! u W k j C T ",
"J P U C F Q B c L T J j P H H l b wXj.,..X-X1X1X1X6X5X1X1X:X8X'.@ W k H k B l o./.5X5X1X>XR.2._ j.S.S.8.[ 0 / @.L J T R W H T j ",
"^ U P J J R C j z H T W T T F e *.:X= 1X6X4X1X1X1X>X>X>X1X8X2X` i T H F k R *.5X7X1X1X4X>X=X1X8X8X8XtX-X_.1.b @.J T W O.O.Q T ^ ",
"Y P ( B V T j R H I H j L V h A 0 J._ 1X5X1X4X5X5X6X8X8X>XP.- 4 P Q Q Q j j o.4X:X1X1X1X1X4X1X{.J.n.n. X'.j.- F F C R R ~ R ^ / ",
"Q J J J J C j E H F A J ~ T B ~ F M * <.;X1X;X{.XX_.G.>.- X g B H W F A j B 4 L.tX-X1X1X1X1X1X-X>X>X`.} =X6X .5 ! J J F ! P ^ @.",
"R Q J R J H J F J A A W J R C J G P R y p ' m G n 7 7 , w E ^ F k R F j C H k % /.tX1X1X1X1X1X4X>X1XyXE.4.tX%X& N ~ B C A k J T ",
"~ Q B f Z A A T V T V Q J j Z H T H j A R j h Q I ^ Y ^ T C H j H P k O.P P R g . F.5X8X1X>X1X1X>X>X8X].3.iX%X* R ~ v J J V T ^ ",
"$.A h V h g H R A C / T h h V N V E T A H U V T R J J G G V l k u H j H R X.X.R F + b E.1X7X7X5X5X7X>X{ /.%X` u Q J R C C S R C ",
"D V N B R B g C V B T S Z B B f V J C L ! L ^ F H J Q C ~ C V l e k ^ R J X.B ! Q / i + = 7.R._./.j.* $ *.& e / K Z r J C C S 2 "
};
