/* XPM */
static char *spike[] = {
/* columns rows colors chars-per-pixel */
"64 64 146 2 ",
"   c #100F0F",
".  c #191718",
"X  c #1D1D1C",
"o  c #391718",
"O  c #232121",
"+  c #2E2B2C",
"@  c #353232",
"#  c #393636",
"$  c #393837",
"%  c #3E3B3B",
"&  c #581D22",
"*  c #413E3D",
"=  c #464342",
"-  c #4A4646",
";  c #4C4947",
":  c #4E4B4A",
">  c #534E4D",
",  c #55504F",
"<  c #555352",
"1  c #5A5655",
"2  c #5B5855",
"3  c #5E5B5A",
"4  c #625D5C",
"5  c #65615F",
"6  c #666363",
"7  c #696564",
"8  c #6B6865",
"9  c #6D6A69",
"0  c #716062",
"q  c #716D6B",
"w  c #75716F",
"e  c #757271",
"r  c #797472",
"t  c #7D7977",
"y  c #7D7A79",
"u  c #A01F2C",
"i  c #9C3436",
"p  c #AE2D39",
"a  c #B22431",
"s  c #A7363E",
"d  c #AC363B",
"f  c #B13F3B",
"g  c #C32635",
"h  c #CA2535",
"j  c #C02937",
"k  c #C72E3C",
"l  c #C92938",
"z  c #D52434",
"x  c #DA2636",
"c  c #C33A3B",
"v  c #AA3640",
"b  c #9E474F",
"n  c #875C4E",
"m  c #974C54",
"M  c #8F575D",
"N  c #AD464F",
"B  c #A05146",
"V  c #A35158",
"C  c #A1585D",
"Z  c #B65156",
"A  c #866C66",
"S  c #827D7B",
"D  c #957C7F",
"F  c #A26E73",
"G  c #BB6971",
"H  c #A67E7F",
"J  c #B27278",
"K  c #C75549",
"L  c #C15848",
"P  c #A8805D",
"I  c #84817E",
"U  c #A59A6F",
"Y  c #A38C71",
"T  c #B59C72",
"R  c #AF7A80",
"E  c #868382",
"W  c #8A8583",
"Q  c #8D8886",
"!  c #8D8A89",
"~  c #918382",
"^  c #9F8182",
"/  c #958884",
"(  c #928D8B",
")  c #95918F",
"_  c #98918F",
"`  c #949393",
"'  c #9A9593",
"]  c #9E9996",
"[  c #9D9B9B",
"{  c #A48182",
"}  c #A3898A",
"|  c #AD8C8E",
" . c #A9908B",
".. c #A19994",
"X. c #A99B93",
"o. c #AF9798",
"O. c #A29D9B",
"+. c #AB9F99",
"@. c #B09E9D",
"#. c #A6A19E",
"$. c #A8A29F",
"%. c #A4A3A2",
"&. c #ABA5A3",
"*. c #AEA9A6",
"=. c #AFABA9",
"-. c #B0AAA7",
";. c #B3ADAA",
":. c #BAACAA",
">. c #B5B1AE",
",. c #B9B2AE",
"<. c #B5B5B5",
"1. c #BBB5B2",
"2. c #BEB8B5",
"3. c #BEBCBB",
"4. c #C28084",
"5. c #C7AFB3",
"6. c #C0BAB7",
"7. c #C4BDBA",
"8. c #C8BABA",
"9. c #C5C0BD",
"0. c #C9C2BE",
"q. c #C3C3C2",
"w. c #CCC5C2",
"e. c #CEC8C5",
"r. c #CDCCCC",
"t. c #D1C6C3",
"y. c #D1CAC6",
"u. c #D4CDCA",
"i. c #D7D0CD",
"p. c #D9D1CE",
"a. c #D1CFD0",
"s. c #D4D4D3",
"d. c #DDD5D2",
"f. c #DCD8D6",
"g. c #DDDDDC",
"h. c #E0D7D4",
"j. c #E0D8D5",
"k. c #E1DDDD",
"l. c #E0E0DE",
"z. c #E3E3E3",
"x. c #EBEBEB",
"c. c #EFF0F0",
"v. c #F4F5F4",
"b. c #F8F8F7",
"n. c #FEFEFE",
"m. c None",
/* pixels */
"m.m.m.m.m.m.m.m.m.m.m.m.m.m.m.m.m.m.m.m.m.m.m.m.m.m.m.m.m.m.m.m.m.m.m.m.m.m.m.m.m.m.m.m.m.m.m.m.m.m.m.m.m.m.m.m.m.m.m.m.m.m.m.m.",
"m.m.m.m.m.m.m.m.m.m.m.m.m.m.m.m.m.m.m.m.m.m.m.m.m.m.m.m.m.m.m.m.m.m.m.m.m.m.m.m.m.m.m.m.m.m.m.m.m.m.m.m.m.m.m.m.m.m.m.m.m.m.m.m.",
"m.m.m.m.m.m.m.m.m.m.m.m.m.m.m.m.m.m.m.m.m.m.m.m.m.m.m.Q ( m.m.m.m.m.m.m.m.m.m.m.m.m.m.m.m.m.m.m.m.m.m.m.m.m.m.m.m.m.m.m.m.m.m.m.",
"m.m.m.m.m.m.m.m.m.m.m.m.m.m.m.m.m.m.m.m.m.m.m.S ( r S e.y.2 m.m.m.m.m.m.m.m.m.m.m.m.m.m.m.m.m.m.m.m.m.m.m.m.m.m.m.m.m.m.m.m.m.m.",
"m.m.m.m.m.m.m.m.m.m.m.m.m.m.m.m.m.m.m.m.m.m.3 y.j.d.p.y.y.w m.m.m.m.m.m.m.m.m.m.m.m.m.m.m.m.m.m.m.m.m.m.m.m.m.m.m.m.m.m.m.m.m.m.",
"m.m.m.m.m.m.m.m.m.m.m.m.m.m.m.m.m.m.m.m.m.m.m...w.w.:./ 0.) m.m.m.m.m.m.m.m.m.m.m.m.m.m.m.m.m.m.m.m.m.m.m.m.m.m.m.m.m.m.m.m.m.m.",
"m.m.m.m.m.m.m.m.m.m.m.m.m.m.m.m.m.m.m.m.O.( m.m.< > A  .p.<.m.m.m.m.m.m.m.m.m.m.m.m.m.m.m.m.m.m.m.m.m.m.m.m.m.m.m.m.m.m.m.m.m.m.",
"m.m.m.m.m.m.m.m.m.m.m.m.m.m.m.m.m.m.m.q u.p.( m.m.q ~ ( 7.p.;.m.m.m.m.m.m.m.m.m.m.m.m.m.m.m.m.m.m.m.m.m.m.m.m.m.m.m.m.m.m.m.m.m.",
"m.m.m.m.m.m.m.m.m.m.m.m.m.m.m.m.- ` ;.7.i.-.;.S S &.] &.S w.h.,.< m.m.m.m.m.m.m.m.m.m.m.m.m.m.m.m.m.m.m.m.m.m.m.m.m.m.m.m.m.m.m.",
"m.m.m.m.m.m.m.m.m.m.m.m.m.m.m.m., 7.p.w.I 4 ( 1.e.w.u.f...6.h.h.$.m.m.m.m.m.m.m.m.m.m.m.m.m.m.m.m.m.m.m.m.m.m.m.m.m.m.m.m.m.m.m.",
"m.m.m.m.m.m.m.m.m.m.m.m.m.m.m.m.m.; 6 < m...d.d.d.y.w.8.1.w.d.d.u.%.1.! m.m.m.m.m.m.m.m.m.m.m.m.m.m.m.m.m.m.m.m.m.m.m.m.m.m.m.m.",
"m.m.m.m.m.m.m.m.m.m.m.m.m.m.m.m.m.m.m.m.m.-.w.i.y.3.x.*.u.d.d.d.d.7.x.x.q.7 m.m.m.m.m.m.m.m.m.m.m.m.m.m.m.m.m.m.m.m.m.m.m.m.m.m.",
"m.m.m.m.m.m.m.m.m.m.m.m.m.m.m.m.m.m.m.m.m.%.r.e.7.f.v.%.p.d.d.d.d.<.x.v.b.k.9 m.m.m.m.m.m.m.m.m.m.m.m.m.m.m.m.m.m.m.m.m.m.m.m.m.",
"m.m.m.m.m.m.m.m.m.m.m.m.m.m.m.m.m.m.m.m.m.[ s.1.7.x.3.O.k.f.h.d.2.>.c.v.v.v.3.m.m.m.m.m.m.m.m.m.m.m.m.m.m.m.m.m.m.m.m.m.m.m.m.m.",
"m.m.m.m.m.m.m.m.m.m.m.m.m.m.m.m.m.m.m.m.m.! ` ' q.c.8 E ` ' %.=.<.g.v.v.v.v.k.< m.m.m.m.m.m.m.m.m.m.m.m.m.m.m.m.m.m.m.m.m.m.m.m.",
"m.m.m.m.m.m.m.m.m.m.m.m.m.m.m.m.m.m.m.m.m.W E e *.s.e [ r.q.%.3.c.v.v.v.v.v.z.5 m.m.m.m.m.m.m.m.m.m.m.m.m.m.m.m.m.m.m.m.m.m.m.m.",
"m.m.m.m.m.m.m.m.m.m.m.m.m.m.m.m.m.m.m.m.m.y q 9 e q.r.c.b.b.v.x.c.v.v.v.c.v.l.6 m.m.m.m.m.m.m.m.m.m.m.m.m.m.m.m.m.m.m.m.m.m.m.m.",
"m.m.m.m.m.m.m.m.m.m.m.m.m.m.m.m.m.m.m.m.E ` 6 1 3 x.v.q.` z.v.v.v.v.v.v.v.b.a.m.m.m.m.m.m.m.m.m.m.m.m.m.m.m.m.m.m.m.m.m.m.m.m.m.",
"m.m.m.m.m.m.m.m.m.m.m.m.m.m.m.m.m.m.m.< s.%.[ ` x.v.b.;.X y x.v.v.v.v.v.b.x.y 2 t q * m.m.m.m.m.m.m.m.m.m.m.m.m.m.m.m.m.m.m.m.m.",
"m.m.m.m.m.m.m.m.m.m.m.m.m.m.m.m.m.m.m.! b.z.<.<.q.a.<.> o ( x.v.v.v.c.v.c.` ) i.d.d.6.6 m.m.m.m.m.m.m.m.m.m.m.m.m.m.m.m.m.m.m.m.",
"m.m.m.m.m.m.m.m.m.m.m.m.m.m.m.m.m.y t %.b.v.v.x.a.0 & u p 8.v.l.x.v.c.x.&.' d.d.d.d.d.e.6 m.m.m.m.m.m.m.m.m.m.m.m.m.m.m.m.m.m.m.",
"m.m.m.m.m.m.m.m.m.m.m.m.m.m.m.* ` u.>.E c.b.v.v.v.G z x C z.v.s.W R ` ` t u.d.d.d.d.d.h.6.; m.m.m.m.m.m.m.m.m.m.m.m.m.m.m.m.m.m.",
"m.m.m.m.m.m.m.m.m.m.m.m.m.m.- &.d.d.p.' ` 3.q.x.b.4.a b e.v.v.j.Z i ..7.6.d.d.p.d.d.d.d.d.( m.m.m.m.m.m.m.m.m.m.m.m.m.m.m.m.m.m.",
"m.m.m.m.m.m.m.m.m.m.m.m.m.m.&.d.d.d.f.f.3.} v R z.z.0.g.v.v.x.J K T w.s.d.d.d.d.d.d.d.d.h.6.m.m.m.m.m.m.m.m.m.m.m.m.m.m.m.m.m.m.",
"m.m.m.m.m.m.m.m.m.m.m.m.m.] d.d.d.d.d.d.d.t.N g m | 5.x.x.a.D h d X.p.d.d.d.d.d.d.d.d.d.d.7.e m.m.m.m.m.m.m.m.m.m.m.m.m.m.m.m.m.",
"m.m.m.m.m.m.m.m.m.m.m.m./ u.d.d.d.d.d.w.u.r.o.s L c k V M n f p { i.d.d.d.d.d.d.d.d.d.d.d.d.w.Q $ m.m.m.m.m.m.m.m.m.m.m.m.m.m.m.",
"m.m.m.m.; 8 m.m.m.m.m.W u.d.d.d.d.h.8.*.y.e.6.$.U B h h a P Y +.d.d.d.d.d.d.d.d.d.d.d.d.d.d.h.d.*.; m.m.m.m.m.m.m.m.m.m.m.m.m.m.",
"m.m.m.m.' p.E m.m.m.t p.d.d.d.d.d.p.( 3.b.n.r.<.1.:.| H R ..<.w.w.d.d.d.d.d.d.d.d.d.d.d.d.d.d.d.h.7.1 m.m.m.m.m.m.m.m.m.m.m.m.m.",
"w.( m.m.$.j.7.m.m.q y.d.d.d.d.d.d.8.S z.n.n.n.f.7.7.7.q.r.l.x.v.g.w.d.d.d.d.d.e.u.h.d.d.d.d.d.d.d.d.w.> m.m.m.m.m.m.m.m.m.m.m.m.",
"d.u.4 m.S p.u.t 1 7.d.d.d.d.d.d.f.;.! v.n.n.n.n.b.c.v.n.n.n.n.b.z.>.,.w.y.p.p.w.` ;.y.p.d.d.d.d.d.d.h.;.$ m.m.m.m.m.m.m.m.m.m.m.",
"d.h.;.q ( *.u...&.d.d.d.d.d.d.d.d.( W b.n.n.n.n.n.n.n.n.n.n.s.` ! ' ' ! I y t t 6 4 W ;.u.d.d.d.d.d.d.d.E m.m.m.m.m.m.m.m.m.m.m.",
"p.d.d.7.y.u.d.p.d.d.d.d.d.d.h.w.] m.t c.n.n.n.n.n.n.n.n.n.r.! 2.d.d.f.d.y.w.8.8.e.y.d.d.d.d.d.d.d.d.d.d.7.= m.m.m.m.m.m.m.m.m.m.",
"! p.d.d.d.d.d.d.d.d.h.f.d.w.] 3 m.m.6 z.n.n.n.n.n.n.n.x.q.+.u.h.d.d.d.d.d.d.d.d.d.d.d.d.d.d.d.d.d.d.d.d.y.1 m.m.m.m.m.m.m.m.m.m.",
"m.] d.d.d.d.d.d.d.d.e.*.S ; m.m.m.m.% 3.n.n.n.n.n.b.<.O.>.i.h.p.d.d.d.d.d.d.d.d.d.d.d.d.d.d.d.d.d.d.d.d.,.@ m.m.m.m.m.m.m.m.m.m.",
"m.m...i.d.d.d.d.d.d.) m.m.m.m.m.m.m.m.y x.n.n.n.b.%.] i.d.d.d.d.d.d.d.d.0.0.d.d.d.d.d.d.d.d.d.d.d.d.d.u.6 m.m.m.m.m.m.m.m.m.m.m.",
"m.m.m.' y.d.d.d.d.0.4 m.m.m.m.m.m.m.m.: 7.n.n.n.r.! 2.,.d.d.d.d.d.d.y.e.] w.f.d.d.d.d.d.d.p.d.d.f.j.8.6 m.m.m.m.m.m.m.m.m.m.m.m.",
"m.m.m.m.) y.d.d.1.S m.m.m.m.m.m.m.m.m.m.( x.n.n.<.] W e.h.d.d.d.d.d.0.I ( O.<.u.d.j.j.h.j.j.j.d.0.W * m.m.m.m.m.m.m.m.m.m.m.m.m.",
"m.m.m.m.m.0.j.7.2 m.m.m.m.m.m.m.m.m.m.m.6 <.b.n.z.r #.j.f.d.0.u.d.h.,.( d.+.* 4 S ' &.;.*.O.W 4 @   m.m.m.m.m.m.m.m.m.m.m.m.m.m.",
"m.m.m.m.m.8.d.w.;.8 m.m.m.m.m.m.m.m.m.m.m.W g.n.v.y w.j.q.=.%.&.j.j...*.h.( m.m.m.m.m.O X . m.m.m.m.m.m.m.m.m.m.m.m.m.m.m.m.m.m.",
"m.m.m.m.m.1.h.h.j.] m.m.m.m.m.m.m.m.m.m.m.< &.v.b.I 2.&.! f.s.O.j.u.S 0.y.5 m.m.m.: 9 e ' m.m.m.m.m.m.m.m.m.m.m.m.m.m.m.m.m.m.m.",
"m.m.m.m.m.S p.h.8.3 m.m.m.m.m.m.m.m.m.m.m.m.9 9.n.q.t ( z.n.r.*.d.( ( d.0.( , m.q 1.u.y.h.] m.m.m.m.m.m.m.m.m.m.m.m.m.m.m.m.m.m.",
"m.m.m.m.m.m.e ( 1 m.m.m.m.m.m.m.m.m.m.m.m.m.m.t s.n.v.n.n.n.x.#.I I u.d.p.i.&.* >.h.y.u.h.S m.m.m.m.m.m.m.m.m.m.m.m.m.m.m.m.m.m.",
"m.m.m.m.m.m.m.m.m.m.m.m.m.m.m.m.m.m.m.m.m.m.m.m.W z.n.n.n.n.n.v.q.t.d.d.d.d.p.I *.7.8 ..) # m.m.m.m.m.m.m.m.m.m.m.m.m.m.m.m.m.m.",
"m.m.m.m.m.m.m.m.m.m.m.m.m.m.m.m.m.m.m.m.m.m.m.m.m.! z.n.n.n.n.n.f.w.d.d.d.d.h.6.( ( m.m.m.m.m.m.m.m.m.m.m.m.m.m.m.m.m.m.m.m.m.m.",
"m.m.m.m.m.m.m.m.m.m.m.m.m.m.m.m.m.m.m.m.m.m.m.m.m.e O.g.n.n.n.n.s.y.d.d.d.d.d.p._ m.m.m.m.m.m.m.m.m.m.m.m.m.m.m.m.m.m.m.m.m.m.m.",
"m.m.m.m.m.m.m.m.m.m.m.m.m.m.m.m.m.m.m.m.m.m.m.8 ;.u.,.1.s.v.n.b.e.p.d.d.d.d.d.d.$.< m.m.m.m.m.m.m.m.m.m.m.m.m.m.m.m.m.m.m.m.m.m.",
"m.m.m.m.m.m.m.m.m.m.m.m.m.m.m.m.m.m.m.m.m.m.I y.d.d.d.p.y.w.r.e.r.d.d.d.d.d.p.d.p.,.7 m.m.m.m.m.m.m.m.m.m.m.m.m.m.m.m.m.m.m.m.m.",
"m.m.m.m.m.m.m.m.m.m.m.m.m.m.m.m.m.m.m.m.@ ) d.h.d.d.d.d.d.d.p.p.d.d.d.d.d.d.d.d.h.h.u.W + m.m.m.m.m.m.m.m.m.m.m.m.m.m.m.m.m.m.m.",
"m.m.m.m.m.m.m.m.m.m.m.m.m.m.m.m.m.m.m.m.) d.d.d.d.d.d.d.p.w.0.0.w.u.d.d.h.d.d.d.d.d.d.d.O.@ m.m.m.m.m.m.m.m.m.m.m.m.m.m.m.m.m.m.",
"m.m.m.m.m.m.m.m.m.m.m.m.m.m.m.m.m.m.m.6 y.d.d.d.d.p.2._ e 3 : ; < 6 t +.7.p.d.d.d.d.d.d.d.' m.m.m.m.m.m.m.m.m.m.m.m.m.m.m.m.m.m.",
"m.m.m.m.m.m.m.m.m.m.m.m.m.m.m.m.m.m.m.1 7.j.d.d.u.] m.m.m.m.m.m.m.m.m.m.> E 2.d.d.d.d.d.d.p.9 m.m.m.m.m.m.m.m.m.m.m.m.m.m.m.m.m.",
"m.m.m.m.m.m.m.m.m.m.m.m.m.m.m.m.m.m.m.m.r y.d.d.d.7.5 m.m.m.m.m.m.m.m.m.m.m.m.O.0.d.d.d.d.d.r m.m.m.m.m.m.m.m.m.m.m.m.m.m.m.m.m.",
"m.m.m.m.m.m.m.m.m.m.m.m.m.m.m.m.% , 7 r 3 S 0.d.d.d.;.; m.m.m.m.m.m.m.m.m.m.m.m.) d.d.d.f.;.m.m.m.m.m.m.m.m.m.m.m.m.m.m.m.m.m.m.",
"m.m.m.m.m.m.m.m.m.m.m.m.m.m.m.> 8 ' 9.y.y.,.) ;.i.d.f.;.- m.m.m.m.m.m.m.m.m.m.8 0.d.d.d.;.> m.m.m.m.m.m.m.m.m.m.m.m.m.m.m.m.m.m.",
"m.m.m.m.m.m.m.m.m.m.m.m.m.m.= q 7.+._ ,.p.f.i.8.u.d.d.j.;.@ m.m.m.m.m.m.m.m.W w.d.d.e.W # m.m.m.m.m.m.m.m.m.m.m.m.m.m.m.m.m.m.m.",
"m.m.m.m.m.m.m.m.m.m.m.m.m.m.$ 1.( I 0.p.d.d.d.d.d.d.d.d.y.> m.m.m.m.m.m.E 2.d.d.d.w.] I Q &.&.O.S = m.m.m.m.m.m.m.m.m.m.m.m.m.m.",
"m.m.m.m.m.m.m.m.m.m.m.m.m.m.% *.5 2.f.d.d.d.d.d.d.h.h.w.t m.m.m.m.m.m.q y.j.d.d.d.i.p.d.u.8.e.y.-.E * m.m.m.m.m.m.m.m.m.m.m.m.m.",
"m.m.m.m.m.m.m.m.m.m.m.m.m.m.m.8 < O.j.j.d.d.d.d.u.2.Q > m.m.m.m.m.m.m.; 7.f.d.d.d.d.d.u.;.#.( ( 7.$.> m.m.m.m.m.m.m.m.m.m.m.m.m.",
"m.m.m.m.m.m.m.m.m.m.m.m.m.m.m.m.m.- ( &.$.] ' t < @ m.m.m.m.m.m.m.m.m.m.w i.d.d.d.d.d.d.d.d.d.] W d.&.m.m.m.m.m.m.m.m.m.m.m.m.m.",
"m.m.m.m.m.m.m.m.m.m.m.m.m.m.m.m.m.m.m.m.m.m.m.m.m.m.m.m.m.m.m.m.m.m.m.m.m.e w.j.d.d.d.d.d.d.d.u.r u.y.: m.m.m.m.m.m.m.m.m.m.m.m.",
"m.m.m.m.m.m.m.m.m.m.m.m.m.m.m.m.m.m.m.m.m.m.m.m.m.m.m.m.m.m.m.m.m.m.m.m.m.m.< O.u.h.h.d.d.d.j.2.r i.$.@ m.m.m.m.m.m.m.m.m.m.m.m.",
"m.m.m.m.m.m.m.m.m.m.m.m.m.m.m.m.m.m.m.m.m.m.m.m.m.m.m.m.m.m.m.m.m.m.m.m.m.m.m.O 3 ' 2.w.y.7.] ; w S % m.m.m.m.m.m.m.m.m.m.m.m.m.",
"m.m.m.m.m.m.m.m.m.m.m.m.m.m.m.m.m.m.m.m.m.m.m.m.m.m.m.m.m.m.m.m.m.m.m.m.m.m.m.m.m.m.@ = - % m.m.m.m.m.m.m.m.m.m.m.m.m.m.m.m.m.m.",
"m.m.m.m.m.m.m.m.m.m.m.m.m.m.m.m.m.m.m.m.m.m.m.m.m.m.m.m.m.m.m.m.m.m.m.m.m.m.m.m.m.m.m.m.m.m.m.m.m.m.m.m.m.m.m.m.m.m.m.m.m.m.m.m."
};
