/* XPM */
static char *bone[] = {
/* columns rows colors chars-per-pixel */
"64 64 140 2 ",
"   c #2E591B",
".  c #33571D",
"X  c #325C1E",
"o  c #385D1F",
"O  c #35621E",
"+  c #39601F",
"@  c #326A1E",
"#  c #345C24",
"$  c #3A5D26",
"%  c #36542B",
"&  c #3E572C",
"*  c #365928",
"=  c #3C5D2A",
"-  c #3E5731",
";  c #3E5D30",
":  c #366223",
">  c #3B6425",
",  c #3D6A25",
"<  c #36612C",
"1  c #3D652B",
"2  c #3E6A2B",
"3  c #3E7127",
"4  c #3F722A",
"5  c #3E6531",
"6  c #3E6B31",
"7  c #405C2D",
"8  c #445732",
"9  c #425D31",
"0  c #495C36",
"q  c #4C5D39",
"w  c #416527",
"e  c #406A26",
"r  c #42652D",
"t  c #48642E",
"y  c #436B2D",
"u  c #486B2D",
"i  c #427227",
"p  c #44712D",
"a  c #49722E",
"s  c #45792D",
"d  c #497A2D",
"f  c #446532",
"g  c #496535",
"h  c #456C32",
"j  c #4A6C34",
"k  c #456439",
"l  c #4C643A",
"z  c #466C39",
"x  c #4C6C3A",
"c  c #506C35",
"v  c #51663C",
"b  c #526C3C",
"n  c #467232",
"m  c #4A7334",
"M  c #477836",
"N  c #4B7935",
"B  c #477239",
"V  c #4C723A",
"C  c #4D7A3A",
"Z  c #517235",
"A  c #527B34",
"S  c #52733C",
"D  c #557B3D",
"F  c #4E6C42",
"G  c #526541",
"H  c #526E41",
"J  c #5A6F41",
"K  c #5C6F4D",
"L  c #4C7541",
"P  c #4F7940",
"I  c #537342",
"U  c #597542",
"Y  c #547A42",
"T  c #597F43",
"R  c #557648",
"E  c #5A754C",
"W  c #577B4E",
"Q  c #5C7B4E",
"!  c #5B7656",
"~  c #5B7B53",
"^  c #607F56",
"/  c #627D5B",
"(  c #657D63",
")  c #4F8035",
"_  c #598043",
"`  c #5F8049",
"'  c #5F8351",
"]  c #65825D",
"[  c #658362",
"{  c #688666",
"}  c #6D8C65",
"|  c #6C8669",
" . c #6C886A",
".. c #70856E",
"X. c #768C6F",
"o. c #728B72",
"O. c #778C78",
"+. c #788D7D",
"@. c #77907A",
"#. c #79917C",
"$. c #7E9482",
"%. c #809485",
"&. c #84978B",
"*. c #859A8C",
"=. c #899B92",
"-. c #919F9B",
";. c #8EA298",
":. c #90A19B",
">. c #95A4A2",
",. c #99A6A5",
"<. c #9AA8A7",
"1. c #9DAAAA",
"2. c #A0AEAC",
"3. c #A4AFB2",
"4. c #A6B2B6",
"5. c #ABB5BA",
"6. c #ADB9BD",
"7. c #B3BCC3",
"8. c #B6C0C6",
"9. c #BCC4CC",
"0. c #C0C8CF",
"q. c #C0C7D1",
"w. c #C4CAD3",
"e. c #CACFD9",
"r. c #CED3DC",
"t. c #D1D5DE",
"y. c #D3D7E0",
"u. c #D5D9E3",
"i. c #DADDE6",
"p. c #DDE0E8",
"a. c #E3E5EC",
"s. c #E6E9EC",
"d. c #EAECEE",
"f. c #E7E8F0",
"g. c #ECEEF1",
"h. c #EFF0F2",
"j. c #F3F4F5",
"k. c #F6F7F8",
"l. c #F7F8F9",
"z. c #FDFDFE",
/* pixels */
"i y D y h h e 1 y j ) p Z e V e o 1 y y M $ n h f h p i e h y h N V c y h k n M E S f I Q n r r h h V m j j j j = y 2 y y y m m ",
"$ w y u y M j y 1 n , e D e z I n w 1 N N > V g V C m m h m m e j h D h h N 2 2 T Y x b V C m m M B h f l V m y > y m i y u j p ",
"y > a y >   > i y e y y a y h C x 5 r n 3 y j j V x m m j y y j j x x j n h 2 1 h h g r # n V m j g e r z j A y > C n y a j j a ",
"P m m y > e 2 1 y j e a 2 2 : > 2 y y i y h m r p x S y c m j g f n j h V 1 , C h r g g 2 N x j h I y j j j m y V n , n D b f f ",
"B C b Z t A u t j V M : j m > > 2 h : 2 j y 2 p h m h l x S v l y y 2 2 n j 2 x H z b l j g N y j p f j z b x j n h 2 1 h n m h ",
"n j Z j w y : g m p h m S x u A > 2 z g x m : y e y 1 f j l h h y y h $ h z h x z V H j h b m j j V x f p h z h z > p B f m j h ",
"x j Z j t m y j x D b V S S j r > y h 2 r n 2 y h m , h x x e y y k R z 6 n h C g z I q j n g l S b G g y y 2 2 B h h x x g x V ",
"x C j Z j r a m r j S S J g m 1 1 h e > n m 1 p y 2 2 h g m h h g r 1 5 h f x V V h h x w , r f j j y j y 2 h $ h x h x V V S M ",
"x m l y r j y u e n y y j j w y h x 2 w m r 6 f n h h h j h h h z V j f w f h x j g S j j m 2 r V j 1 y y k R h n h h V f m h l ",
"h z r e w u a e a n y m y M g v S b V j S u h 1 p y 1 M n y h z r p V l y g H q G J S S h h z h f h y h j g 1 h f z j N x h $ f ",
"j r , y N , u u j m j m j p D b g S j e n e e B > N b j y B i C j , n V h y & 9 b b j H j f h j j 1 6 N f x x 1 1 t j x h j y r ",
"V > y a a y e j m w j Z m Z U S j Z j r j > V V h * j r j h r y N y y m : 1 y 2 h j h m M 1 h m h y f h 1 h b x y g b h p e j l ",
"n j j e d m j Z g S c Z j m S V V h m j r y j h p $ y h V f h 1 M h w > 1 > 2 C r 9 y e 1 N g > h m i 2 I 1 y j m r & x j V x f ",
"y m h e e u j Z j g j b r y Z m S g 1 w n n z 1 e n > n V h e 1 B C h h 8 f h 1 L x I o.&.;.$./ j y f p m y , n j : j C S I G r ",
"y , w e j a N h j u y y m m m D j > 2 2 e e N n p m x z h j V h y h m h f h 2 1 6 ] 3.i.j.g.f.r.,.I 2 1 2 n 2 y h , j h h x j j ",
"w h h > y w M a e h y m m Z : j d > y y > r m y x C z S h 1 V V j V N y j r r S m ,.s.z.z.z.z.z.a.=.i z - h h k > y < 2 1 y h f ",
"1 V a @ o > b p y m u m j h h , y m > V j + 1 y y N > B y f n N m m g m y m I c ] e.z.z.z.z.z.z.l.7.b g k F z h 5 6 h 5 1 y f z ",
"m > 1 1 , y , , d y a y e y x > e D u z Y j r e N N 1 V j V N x z h S j h j h m &.s.z.z.z.z.z.z.z.w.] f L z z h 5 < 6 ; k z j z ",
"x y 2 h m x e y y j j > r 2 S g > w a n C V 1 h p 3 y j f N g m y j y y j z V x 2.j.z.z.z.z.z.z.z.r.] i N 1 6 h < < 2 > x g D j ",
"e y m h 2 e e y m a y p m m y j M > : + : 2 y y y w j j f y H V j j m x g y 2 I 7.z.z.z.z.z.z.z.z.r.^ y B 2 n N h * 1 r h y u y ",
"N m y 1 , m 1 j j j m u h w p 1 > i > > > 1 2 1 r x y 2 y h n f q V S v l h + Q w.z.z.z.z.z.z.l.d.9.| m e > y a z f 7 1 y 2 y M ",
"I j # : 1 y d u t j V 7 t > p $ $ d $ u D > 2 h g z m > y y y 1 f j x j y e V >.s.z.z.z.z.z.s.7.9.w.9.1.o.B 2 h 1 z 9 p h h y 1 ",
"j u 2 O # y m a e j y u j > m e r t r u = > y h > y p 2 i h n , y x b > n o.6.a.z.z.z.z.z.z.l.l.z.z.z.k.i.7.( * f y h V r w y y ",
"U Z y : > w r V , b D p y y u r h u y m 2 1 h 2 , n h 2 y h 2 2 j 7 2 ] ,.y.k.z.z.z.z.z.z.z.z.z.z.z.z.z.z.j.7.F 6 1 1 j r > # r ",
"y m m y 2 p h n h h p y g u u a Z y j w h m b e r S w 6 h n z h y Q =.w.h.z.z.z.z.z.z.z.z.z.z.z.z.z.l.k.j.z.i.#.> ; j n 1 d y j ",
"m y r 2 > , 1 6 N h w h S V p y A p j x v b x m j S r h 6 h > h @.7.a.z.z.z.z.z.z.l.l.l.l.z.l.z.z.z.l.j.d.j.s.:.h = h h > m j u ",
"y , h e 1 > > B m y f j B m y j u u j _ v j S r e j y y h > } 3.y.z.z.z.z.z.z.l.k.j.h.h.g.j.j.j.k.j.h.d.s.g.f.:.z 1 $ y j j j a ",
"j m h 1 y > 1 h M , f x i w y m S u D U V j Z u f m > h ~ -.w.j.z.z.z.z.z.l.j.j.h.d.s.s.d.h.d.d.d.d.s.s.a.h.i.$.# h 5 h p h j N ",
"m m m 2 1 2 n h h M h z f m w x j h m j S N z m j 1 j #.7.s.z.z.z.z.z.l.j.h.d.d.d.g.j.j.d.s.d.g.d.s.s.s.g.j.9.~ h 9 1 h h y q C ",
"r r 1 p > $ e y 1 h n m p j h m y y M Z V S j > w ] 4.u.z.z.z.z.z.l.j.h.d.d.d.g.k.j.p.w.1.,.9.a.j.j.j.k.g.q.#.h B x j n C f r j ",
"8 u : : 2 y > 1 y y y S p j c j y x m j T n O L =.w.g.z.z.z.l.z.k.h.g.d.d.g.j.l.s.9.&.Q n z ] ,.9.t.t.e.5.X.h j k j x f h > j U ",
"j V > . 6 V I n y j c j y h I j B x V > 2 n o.7.a.z.z.z.z.z.l.j.h.d.s.d.j.l.h.r.:.Q e > b a j S ^  .X.~ V h j n z 1 r y r $ j m ",
"h B 1 h y h m N h n D C y y m N a l j 1 ~ ,.t.l.z.z.z.z.l.k.h.d.s.d.h.l.k.a.5.| h r 2 j b h h z v y h 1 2 x R l l 1 * 1 h ; B z ",
"n n 1 j 2 2 6 h 1 y 3 y m j w > : > R =.w.j.z.z.z.z.l.k.j.g.d.d.g.k.l.f.9.*.V r m m n y j m m B 5 z B r r z f G l $ > h f f B F ",
"x n 2 h 2 y y n > W &.4.2.;.@.E L  .5.a.z.z.z.z.z.l.k.h.d.d.g.k.z.h.e.:.~ 1 5 h n 1 1 h h 2 p B B C h 2 f x f f B 1 f h h n B V ",
"1 p , 2 2 L > Q $.7.f.l.k.g.i.e.0.u.l.z.z.z.z.z.l.j.g.d.d.j.l.j.u.4.{ I y h e 6 2 m h V y 1 p h h z 1 h 1 2 f f z x z h z x N h ",
"k n : , m F V &.t.z.z.z.z.z.z.z.z.z.z.z.z.z.l.j.j.g.d.h.k.l.a.7.O.h 1 x v r h V r w V r 1 2 y z z h f 5 2 5 h 5 z x z B = h h L ",
"x p < 4 p > ] 7.z.z.z.z.z.z.z.z.z.z.z.z.z.k.j.d.d.d.k.l.g.9.=.R   * x g 9 r m h m $ y r h 2 h j z n F k y h 9 x x ; < 1 5 6 B V ",
"n p , = y + ( i.z.z.z.z.z.z.z.z.z.z.z.z.k.j.g.d.j.l.j.t.<.( y y h 6 j h y f j 1 S y 1 M V 1 > 1 f m R F V j k r = p 5 h * 6 n 6 ",
"C j n y v c o.u.z.z.z.z.z.z.z.z.z.z.z.l.j.g.g.k.l.a.7.o.z > n n > n h h y 7 m h x j , h k k 2 r z j l h 9 f z f 2 e h k % h C F ",
"l z p 2 1 g Q 6.j.z.z.z.z.l.z.z.z.z.z.j.g.g.l.j.w.=.R 2 e h h 1 V j n n m > y i 2 h > r f k f f j z 5 h z 2 h 1 z 1 n f = y G G ",
"f n p y , m e { 9.j.z.z.w.r.z.z.z.z.l.j.g.k.g.7.{ > r h y B z > j x r n p 2 S , i h j y 7 9 g x j x L h h h f h 5 h j k x h k k ",
"V M 3 2 1 y a u ^ ,.q.r.8.z.z.z.z.z.l.j.g.j.7.[ > h y 2 w j m 2 > e f j h y M m 2 N e $ 2 2 1 z f p m y > n h y r h 6 1 V n 2 l ",
"L p h V h 2 c D m v I +.w.z.z.z.z.z.l.h.j.s.=.y h 5 h j h m 2 h h h n x h e 2 M r w 1 1 > N j 1 r m h m S j e V a 3 x j 1 k h I ",
"2 , i r 2 , y M p f 1 ~ t.z.z.z.z.l.j.h.k.p.} . n M c y h j z h x 6 V h r 2 f P h h 9 9 h y h R z j y = m $ f j 1 y M m i 2 5 z ",
"j j h p > 1 a p p n r [ t.z.z.l.l.j.h.h.k.0.W y n e m d j I V S r m h y V h 1 h h m r j r 2 < C x K m h f z S z h 2 > 2 2 , 2 2 ",
"V b f m f g , 1 y u 2 F 0.z.k.j.h.h.d.j.h.1.n f j u m u j D b j h B x k h Y j m N j y y 1 j Z j H g m m j N V l y m ; f h 2 : n ",
"m V 1 h F S y : y y 1 1 1.g.k.d.d.d.g.z.i.#.> y e j S u S U x m 1 h N f h n m N x j y n m H j y z h p I U j j I j u l G B f z N ",
"2 n 6 z j j e h j m > : { w.j.k.j.j.l.h.4.I > m y y y j m j S M i x j j D m j h x S y g j m V y m n , B Y x x h h x h L k B B 5 ",
"5 1 z h = l g z x y 2 z h o.q.a.d.s.u.4.Q u y j j y y y n V m y 3 j g m V j m r n y h j x x x n h 2 2 1 m f j 1 r C M h 1 V 1 5 ",
"y h > h , , j j h y m V h # ~ &.:.*.| z 1 j w d n n 2 g m 2 2 > V V h h j Y a x m m l f p h h V z > N m y f v : p V j y 2 h 2 2 ",
": 2 h , e j h n x h x j 2 , > 2 > 2 h m b m h e 2 y p z z h h r h 2 y y h y q x S b l h y y 1 y j h h F x x l j h j M y w y 2 # ",
"2 1 2 1 f V e > 2 q l p , p x h 1 h h h N m p y 1 r m n h h k 5 h > y 2 m 2 f f z j h j e z r 1 z z z x h I b V h I , 1 y n z 1 ",
"m , y h g j n 1 p e j m y a m y h 1 y 1 3 2 u j y r e y 1 > < 2 n y 1 p n 2 2 h S j y y y H L h y h m x f C v 0 N 2 h 5 n h j a ",
"$ 1 h h > y h > 2 2 h h r j y h f h h y p p y S z < 1 y 1 z V z h y 2 y 2 2 n f f h e g g 1 1 h f j V m x y x z j r h h 6 f j j ",
"2 h y > > N h 2 h n r > m h = h d S h j j j y h m z y x r B V B j 1 h n n k n j h h m h x j f 1 h w j x h j I g f C = n 2 1 u a ",
"j j S u j S r 5 z M j 5 V h h 2 w A p j I A , h h j M h h h C x k h 1 h p 1 n n h y n f 2 N F h y G l 0 U H D x z x n M B n p 1 ",
"U b b u h m y 2 6 y h n h n h y u m u j T j 2 y < = y n z 2 M h j h 6 h 2 S z e z p y I > 3 V j h r 8 z b S J S h a x L L x h I ",
"x j Z r y m > m h 5 h 6 B y 2 e c m y S c j z x y n h 1 , 4 1 1 z V V V = y r g j h 2 a n 2 N r $ y > h x j g V f p m m x S Z D ",
"V j m j f u 1 V n g y j S j w m j u j j j C j x j e z z n 2 n 1 z m f a e 1 p V z h h 2 M r w > 1 > N f y 9 l y m x h f V m S Y ",
"V V j m j r j f j y i m j m y j f x x c V s e x z r x h r h V f 2 m y 2 y y 2 h h w 2 f C h h f f 1 y S z j x r r Z > u p 2 m j ",
"V m r : r a p M y n n V g 1 r n M h > y h f 2 V f x g x y u y 1 h x 1 L H x h 1 1 j r j h r B z n 1 h m m m 0 S m c t j a y m S ",
"_ y w p , > y V p g S m > e y e y N n 3 m x 2 h m j b g g y < 2 = h 1 h V G U m f j V b x f k 1 h y B S h h S D j j A f u a a y ",
"p i w r m y > h y e n N w y w : y j h j C x S h j j m y Z y y 1 # 2 S m j H r N m S N j z 1 H B y j j m h j N m x f $ u u y p $ "
};
