/* XPM */
static char *fence[] = {
/* columns rows colors chars-per-pixel */
"64 64 180 2 ",
"   c #2D5C1D",
".  c #325B1E",
"X  c #2B631D",
"o  c #36601E",
"O  c #39601F",
"+  c #306A1D",
"@  c #285822",
"#  c #325F23",
"$  c #3A5C25",
"%  c #365D2B",
"&  c #3E5D2B",
"*  c #3D5E31",
"=  c #366324",
"-  c #3B6426",
";  c #356B26",
":  c #3C6A25",
">  c #35642B",
",  c #3D652B",
"<  c #356B2A",
"1  c #3D6A2B",
"2  c #3F7126",
"3  c #3E712B",
"4  c #3D6632",
"5  c #3D6C32",
"6  c #3E7131",
"7  c #435E2A",
"8  c #4B5B2D",
"9  c #505F2E",
"0  c #425730",
"q  c #445D35",
"w  c #4A5C36",
"e  c #4D5E39",
"r  c #5B5A34",
"t  c #426527",
"y  c #416A27",
"u  c #42652D",
"i  c #4A652D",
"p  c #436B2D",
"a  c #496B2E",
"s  c #51632C",
"d  c #536C2D",
"f  c #5F682D",
"g  c #427327",
"h  c #44712D",
"j  c #49722E",
"k  c #46792C",
"l  c #446532",
"z  c #496534",
"x  c #456C32",
"c  c #4A6C34",
"v  c #45663C",
"b  c #4C633A",
"n  c #456C39",
"m  c #4C6C3A",
"M  c #546332",
"N  c #596633",
"B  c #536B34",
"V  c #5B6A34",
"C  c #51633D",
"Z  c #5C673A",
"A  c #526C3C",
"S  c #5C6C3A",
"D  c #457233",
"F  c #4B7335",
"G  c #467835",
"H  c #4C7935",
"J  c #467239",
"K  c #4C723A",
"L  c #4D7939",
"P  c #517235",
"I  c #587035",
"U  c #527C34",
"Y  c #52733C",
"T  c #597239",
"R  c #547B3D",
"E  c #587B3F",
"W  c #63632F",
"Q  c #646534",
"!  c #646A33",
"~  c #696D34",
"^  c #62643B",
"/  c #646C3A",
"(  c #6A6E39",
")  c #736633",
"_  c #7A6635",
"`  c #746C35",
"'  c #7C6B36",
"]  c #70653B",
"[  c #7D6339",
"{  c #756C38",
"}  c #7B6D3A",
"|  c #667036",
" . c #6B7036",
".. c #61743C",
"X. c #68753F",
"o. c #697939",
"O. c #757237",
"+. c #7C7037",
"@. c #7C723B",
"#. c #4B6642",
"$. c #4E6D40",
"%. c #516541",
"&. c #526D41",
"*. c #5A6F41",
"=. c #5E6F4D",
"-. c #4C7441",
";. c #4F7940",
":. c #537341",
">. c #5A7443",
",. c #557A42",
"<. c #597F43",
"1. c #567648",
"2. c #5F744A",
"3. c #5C7E4D",
"4. c #6F6540",
"5. c #726E40",
"6. c #7E6D41",
"7. c #647543",
"8. c #884F1F",
"9. c #88501F",
"0. c #8C5322",
"q. c #905724",
"w. c #935925",
"e. c #99602A",
"r. c #846C35",
"t. c #8A6C35",
"y. c #80673A",
"u. c #826D3A",
"i. c #8B6D39",
"p. c #936B35",
"a. c #9C6D37",
"s. c #946D3C",
"d. c #9C6E39",
"f. c #8E7137",
"g. c #83723B",
"h. c #8B713B",
"j. c #93723B",
"k. c #9C723B",
"l. c #A1672F",
"z. c #A56B2F",
"x. c #A66731",
"c. c #A56C33",
"v. c #A96E35",
"b. c #A06F39",
"n. c #A86E39",
"m. c #B06F37",
"M. c #A27136",
"N. c #AD7236",
"B. c #A4753D",
"V. c #AB743C",
"C. c #A7793D",
"Z. c #AA793E",
"A. c #B17337",
"S. c #B3763B",
"D. c #B9763C",
"F. c #B4793E",
"G. c #BC7C3E",
"H. c #C37D3F",
"J. c #806F41",
"K. c #8E7541",
"L. c #987640",
"P. c #AA7640",
"I. c #AD7C42",
"U. c #B27641",
"Y. c #B67B41",
"T. c #BD7D41",
"R. c #C37E41",
"E. c #CB7E41",
"W. c #4F8035",
"Q. c #BE813F",
"!. c #C2813F",
"~. c #C8833F",
"^. c #BE8141",
"/. c #C58342",
"(. c #CA8543",
"). c #CB8945",
"_. c #CF8848",
"`. c #D18546",
"'. c #D38946",
"]. c #D18948",
/* pixels */
"g p R p x c : , p c W.h P y c p o - p p G - F l l x k h p j p p F K A p x l D J 2.Y u 1.3.D p u x x K F c m j c , , p y p p D F ",
"$ t p a p k c p - D : u R y n ;.j , , K U = m c L L F D p F j p m x P x D H 1 1 ,.,.n Y m L K a J F D l C A F p - p F g p a m j ",
"j - D y - . = p p y p p k p p ,.m l p D 3 p m x P m D D c p x c z K m K D x 1 : l J z u $ J L F c b y u x D P p , H j p j c c p ",
";.F c h - p : , l F y k p - = = 1 p p y y x c u D m Y a z H m z p D z x J l : L x u b z : F m x x :.p x c D F p F J < D R m b p ",
"J K A P i P j l m L G = c m - - l 1 : u m x : D l G l b -.Y b b y p l : D m p c $.n A b c z F p D p p z m K m c D x 1 , x F c J ",
"J c I c y y = z c h x c Y m a U = 1 x n n x - g p y 1 z x m x p x : J $ x n x m m K &.F D :.F z m H m l D x x J J - p L x D m p ",
"c m P c u H p z m R m L A Y a t : p n : p D u p x F : l m A : p p n 1.n 5 j n L b x :.e x x z b Y Y C z p 1 l 1 F n 5 m A z m F ",
"m L c H c l j j u c Y Y *.A D , , l y - j c : p p : 1 x b c p c z u , 4 l l m F K x x m y : u l c z x z p y x $ c n z K J K :.j ",
"K K m u y c p a y D p p c c y l x m y - U u l x J x x x c x x J n K z l y l p A m c A m K c y p K c : x p v 1.x x p x K l F l z ",
"l z u : u a j : d D D F p D x A Y A F m R l 1 l c 1 , G D p p x u j Y n p w &.e A &.Y Y x u x n z x p p c l l m u n F F m c - l ",
"F u - j H : h V V./ x B c x E A z R p p p y < i.p.F A c x F g K c : D m x p 8 Z.5.K m &.c x x c x 1 l K z x g.d.u l p m x c l u ",
"m - y H j y u k.'.V.z U j U >.m c P z u m - / R.).} 5 t m x l p H h p F - = s.].V.M x j G , x p x p , x 4 N ^.).u.z &.x j p x z ",
"D x F y k G y.)./.`.i.A m F Y L K z H c 4 i F.(.~.Q.V 3 L z x , G p i - > ) (.Q./.k.l D y U m a x G g p &.V.(./.H.Q % m F K m l ",
"p D x y : ! H.(././.(.} & h P D K z - u x j.).Q.!._.V.m F z : , K L x 5 r G.(.Q.^.).y.5 u 4 x 7 z x u 3 h.)./././.F.N K Y :.%.u ",
"y : u y x j.(./././.(.Z.a F m E F - 1 1 d !.)././.^.(.` < K L l l x F 5 r.(././.R.(.Y.*.F l x F K n 1 c Y.)././.G.(.y.x x K z F ",
"u c x - y j.(././././.C.c H O x k t p : s R.)././././.+.5 l F K x H F x r.(.(.^./.).F.l H c F D A n h N G.(././.G.(.` < , l x 4 ",
", F j + . j.)./.!./.!.C.c x x : p F u F V R./././.Q./.O.1 z D F F F b 3 h.R.(.G.!.).F.c F >.Y n L &.l N ^./.^.(.^./._ 4 > p u m ",
"c y , u : j.`./.!./.!.C.u p n , y R p n 7.R./.(.~.Q.(.O.l L L m x x Y x t.(./././.).F.y 3 ,.:.m c p J Z Q.~.!./.Q.(.' % v n c b ",
"m p : x G j.(./.!.(.H.B., y >.z - y a D >.T.^.(./.Q.~.` 5 L b c D c h u r.(././.(.).F.p , x x z x , x P Q./.Q.)././._ > m z E x ",
"p 1 D c : j.'./././.H.C.c D y F D t - X i ^.^.(.~.G.~.O.4 p A L a m F n i.!./././.(.F.p L z l z z = G V F.).!.!.(./.' , F p p p ",
"H F p - < j._./.)././.C.l , j : - g = - s T.^.(./.Q.~.O.1 l h l e K Y b i.!././.(.H.F.c n :.n &.b c n V S././.)././._ % p p p D ",
":.z $ - $ j.(././.(.!.C.7 - j $ 7 F $ p o.R.!./.~.Q.~.` 1 p j , l c m l t.H./././.(.D.z J m m &.F c K Z S././.!././.[ D c p x , ",
"F p < X @ j.~./././.(.C.x > D = - , - 3 8 R.^././.Q.~.~ < 6 D ; 4 n K < h.~.(././.!.F.x G l 5 -.q x 6 c S./.(./.^./.} 6 , < p y ",
">.7.' ` ` a./.^././.(.S.` +.g.' @.' ' @.' T././.!.H.(.t.O.+.` _ } ' } ` p./././././.G.y.6.} } ' [ } ` ' S.(./.(././.p.} } ' 8 , ",
", @.E.(.(.m.R./.)./.).S.H.(.H.H.H.H.H.(.D.G.(./.)./.^.N._.(.).(.R./.(.(.N.T.(.).(.(.F.G.~.H././.(.R.(.G.S./.).).(.^.n.).(.E.Q x ",
"h ` (./.R.V./.T.x.Y.).A.F.!.G.Q.!./.R.(.S.G.).N.c././.N././././././././.N.R./.x.D.).F.G././.^.!.H.R./.F.G.).S.z.(.^.N.(./.R.! x ",
"1 ` (.^.T.V./.Y.0.S.).V.G./././.!.!.H./.S.G.).a.w.!./.N./.Q./././.(././.N./.!.0.A._.S.G.(././.!.G././.F.G.).z.w.(.^.N.T.R./.~ x ",
"x } '.(.R.A.R././.(./.S.H.(./.(.!.(./._.S.Q.(./.(./.T.V.(.(.!.~.!.!.(.~.V./././././.G.G.(.~./.(.(.).'.G.F.)././.(.^.V.(.~.(.| G ",
"J { V.C.B.n././././.(.N.k.C.B.Z.C.B.C.C.b.G.(./.(./.G.c.k.M.a.a.M.M.M.k.M.(./.(./.~.F.a.C.C.C.C.Z.Z.C.c.G./././.(./.a.P.C.B.^ K ",
"y l , p = i.(./././.(.C.p F p x p p D m S R.(././.(./.} > p G l J K c > r.`./././.).Z.i F $.z %.w $ , B F././.!./.(.' 5 x 4 u c ",
"* i = # 1 j.(./.(./.).C.p F m c p m F F ..R./.(./.(./.{ 3 g u F G , m J h././.(./.).S.c D n K &.D F l A G.(./.!.(._.y.1 x = m T ",
"c F , # 5 s././././.(.P.u F Y m K n F - N /././././.(.` : m F x K c 1 D K./.^././.(.S.i F F F Y >.D n M G.(./././.).y.p u & F F ",
"l F , x 1 j.(./.(.G.).C.p y c F G z m $ s T./././././.` 1 p H - K l l 5 h.R./././._.S.B Y p D n &.z m B G././././.'.} > p * K x ",
"J G , c < j.~././.H.).C.a F c y = p c q M G./././.R.(.) 1 F L , m n F J h.(./.!./.).F.x c D F x 4 n D i F././././.`.} 6 b l J $.",
"x D l D < j.(.(.(.Q.(.C.u F l x p u t * ^ G././././.(.` 5 p : p c p K n i.(./.!./.(.F.c n u h J K L x a Y./.(././.`.u.4 x J J K ",
", D : y : j.(././.G._.C.z z p j F u x z / T././.(./.(.J.> g : i x x p $.h.(./.!./.~.F.B y 5 h x x n 4 B Y.^.)././.).u.x z K F x ",
"b J + : x j.)./.!.Q.(.C.D F 1 = x c y K / T././.(./.).O.1 3 J x = y 4 n h.)./.!./.(.F.i < 1 x x x x 4 b F./.(././.(.J.5 * l x K ",
"J p i B F p.)./././.(.Z.a j a B z P c a / T.G./././.)._ u B d a 7 0 A A t.(./././.R.F.w B u m M A m A Z F./.(././.(.u.u a c -.J ",
"6 ` S.F.Z.V././././.).S.V.F.Y.F.F.F.F.Y.N.G./.!.(./.^.n.F.V.F.F.F.Y.F.Z.c./.(.(.(./.F.V.T.U.Y.I.F.S.^.V.F.!.(.(.G.(.v.Z.V.U.T x ",
"J g.(././.S.~./.G.~.(.A.G././.!./././._.D.T./.H.!./.Q.V./.R.R././.(.).(.N.^.(.Q././.F.T._./.^./.R.H./.Y.F.H./.T././.A.(.(./.5.n ",
"n { (./.G.A./.G.0.V.).S.G.G.Q.G.Q.!./.(.S.G.(.e.q.(.T.N./.(./././.G././.M.R./.8.v./.S.G./././.(./.G.R.F.F./.z.9./.(.V.(.R.G.] #.",
"5 { (././.A././.n.T.).S.F./.Q.Y.G.Q.Y./.S.Q.~.S.V././.N.)./.(./.R./././.N././.m.H./.S.F.!.G.^.^././.).F.F./.Q.N././.m.(././.^ 4 ",
"J +.R.R.T.F././././.).F.R.(.(.(././.R.(.S.G./././././.A.(.(.(.R.H.G.R.R.N././._.).!.S.D./.H.H.R.R.R./.D.S./.).)././.A.R.G.E.Q v ",
"-.B ~ ( V k._./.R././.N.Q ! ~ | ! V Q ! ` R./.Q././.(.r.V ( Q Q ! ! ~ ^ p.(././.(.!.S.! W  .( ^ Q ~ ! ~ F./.)./.)./.K.Q ! Q m -.",
": : 3 , < t.(.(.T././.C.u < K > # 3 < < V T./.R././.E.` 6 n 5 l m 1 J 5 i.).R./.(.!.U.z 4 1 4 -.n x < 7 Y./././.!.(.6.6 : < u n ",
"F c x j - t.)./.R.(./.Z.n , x 5 < g c y N /././././.R.` x ,.K Y u F x 5 i.)./.(.(.!.F.M 5 1 > L m 2.L N Y./.!././.(.+.1 p : p p ",
"K $.l F 4 s.`./.R./.(.M.u x 1 5 x 4 x < s R./.T././.H.` n ,.A z x K K 4 h.)././././.F.i , c F j A v D T F./.Q././.~.[ 4 c < = h ",
"c K , c A L.)././.(.R.C.c c x D l D F 5 V R././.(.(.H.` L >.K F , x F * i.`.!./.(./.F.c J S m p x x D S Q.).Q././.(.y.v K z n F ",
": 5 l J x j.)././././.P.p 1 p F p L m x V R.R./././.R._ D F Y D h F m x h.)./.(./.(.Z.M n F F x K D ; P Y.(.R./././.g.-.5 -.n 4 ",
"n , n x $ j.'.).(.(._.Y.z , P l u J L n N (.).(.).)._.{ 6 P L 1 3 c l D j.`.(.).(.'.Y.b K m m D D 1 , i R.).(._.).`.g.5 4 K 4 , ",
"h z - p : r.Z.V.C.C.V.s.x - 1 x J h p , N V.Z.Z.V.Z.V.] D 1 : & F K x l @.Y.C.Z.Z.F.b.z p x x F n - H A B.I.Z.Z.C.F.{ 1 : D : : ",
"# 1 D : p m u D z c B n , : , D 1 l J K A c x y - x x m z J x 4 z < p p x u w b A m C x p p , p c x x A b m e z l z F p u x u # ",
"p , p , l m p - p w z D : h x x , x D p H G h p , u D D l x v , D - p y D y l x c c p c y x l , m x n m F :.P L n Y = , y D n y ",
"j : p c x z D , p p F F x j F p l , p , 1 y a F p u p p : , , 1 D p , h F 1 : z :.x p p p $.-.x D x D m l L C w F j x , x x c c ",
"$ : x x - p D , : 1 x p u c p n , F a p j j p K x , , y u n K x x p p p : 1 J z x l p c z , 4 x l x K F n p m n c 1 x J x 4 F c ",
"1 n p = - F x y p J u - F x $ x j Y x n x c a c K n 5 m , G -.m c , p D J x D z x 5 F l m m z : u u F m c z :.z n K $ J 1 , a a ",
"m c A p z P u 4 n J x u K n x 1 y P k a :.F = D u x F x x n L c b l 1 x p , D a x p x l 1 F %.p p C m w >.A E A c c h G J x D , ",
">.A F j J F p , h p x J p D l p a j a m E F : x , l p D n 1 G x K x 5 x < R m y J k h :.- 3 K c x l 0 m Y Y &.:.x j m -.;.m D :.",
"b x T i p D : F x l D 5 F p : p m F u R A c n c p D x , 1 3 , , n K K K $ x u l c l u k G : H u - p = x m c z n l j F K K P L Y ",
"K c D c z a , F x z p c F F u F x c a c c L F m x : F z D < G , x K l h y , D F z n p 1 G u t - , = F l p 0 A p F m u x K F Y :.",
"L K z F z p F z x j g J c F c c l m m B F k y m n t m n t x K l 1 F x y p p 1 x j u < x ;.x x l q , p Y n c m u u F - a j : c F ",
"L m y = y h h J p D x m z , u p G l - p n l 1 K n A w m p a l , x m 4 J &.m x t u D u z x , K x F , x F F c b F c P i c D p c R ",
"<.p - j : - x U x u R k - : p y y R D 3 F m 1 x F a P l z a = p - x , x K &.1.D l z K Y c l b 4 D p F K c D :.L m F F l a j D u ",
"g h y , m u - x p p D j i p : - p D x c L m Y c x D A p F c p u @ , Y P z &.u H F Y F m n , K n x F z F p c F F A u - a a p a - "
};
