/* XPM */
static char *spike_right[] = {
/* columns rows colors chars-per-pixel */
"64 64 232 2 ",
"   c #0B0D08",
".  c #29090A",
"X  c #18280E",
"o  c #1C2915",
"O  c #242E1D",
"+  c #253919",
"@  c #2B2C26",
"#  c #2B3424",
"$  c #2D3B24",
"%  c #323B2A",
"&  c #393937",
"*  c #473D3E",
"=  c #2B441D",
"-  c #2C4B1C",
";  c #264717",
":  c #2C531C",
">  c #31531C",
",  c #325B1E",
"<  c #35631E",
"1  c #36651F",
"2  c #2D4522",
"3  c #334D24",
"4  c #364B29",
"5  c #364729",
"6  c #2F5021",
"7  c #335324",
"8  c #345B23",
"9  c #3A5C26",
"0  c #355329",
"q  c #3A532D",
"w  c #3C5C2B",
"e  c #375826",
"r  c #3D4B33",
"t  c #3B4534",
"y  c #3D5432",
"u  c #3D5D30",
"i  c #366223",
"p  c #3A6426",
"a  c #3C6B26",
"s  c #3D642B",
"d  c #3E6A2B",
"f  c #36612C",
"g  c #3F7228",
"h  c #3E6A31",
"j  c #3F6631",
"k  c #425B2D",
"l  c #444C3C",
"z  c #43463D",
"x  c #425C32",
"c  c #45533B",
"v  c #465838",
"b  c #416A26",
"n  c #42652D",
"m  c #436C2D",
"M  c #486B2E",
"N  c #436529",
"B  c #44712D",
"V  c #49722E",
"C  c #44752A",
"Z  c #446532",
"A  c #496534",
"S  c #456C32",
"D  c #4A6C34",
"F  c #4C643B",
"G  c #466C39",
"H  c #4C6D3A",
"J  c #446339",
"K  c #50663C",
"L  c #526D3C",
"P  c #506E37",
"I  c #467232",
"U  c #4B7334",
"Y  c #4B7935",
"T  c #467239",
"R  c #4C733A",
"E  c #4D793A",
"W  c #517236",
"Q  c #52733C",
"!  c #537B3D",
"~  c #557B3A",
"^  c #7E3E46",
"/  c #474C42",
"(  c #4A4C44",
")  c #4B4948",
"_  c #4C5642",
"`  c #52544C",
"'  c #545C4C",
"]  c #515546",
"[  c #595553",
"{  c #5A5A54",
"}  c #5E5C5A",
"|  c #585353",
" . c #524B4F",
".. c #615D5C",
"X. c #7A504D",
"o. c #4D6840",
"O. c #526D42",
"+. c #566747",
"@. c #4D7540",
"#. c #4E7A42",
"$. c #537342",
"%. c #597444",
"&. c #547A42",
"*. c #5C7B47",
"=. c #5E6356",
"-. c #5F6756",
";. c #63645E",
":. c #646462",
">. c #6B6D63",
",. c #6E6C6A",
"<. c #6A6664",
"1. c #716C6C",
"2. c #786969",
"3. c #6B7462",
"4. c #73736D",
"5. c #777A6D",
"6. c #747272",
"7. c #797573",
"8. c #7C7A75",
"9. c #7E7B7A",
"0. c #777E70",
"q. c #920008",
"w. c #A10318",
"e. c #AD1D2C",
"r. c #922E36",
"t. c #A82A35",
"y. c #AD2D32",
"u. c #8C1D27",
"i. c #DD1729",
"p. c #CB1526",
"a. c #ED1C31",
"s. c #D62B35",
"d. c #F72A3C",
"f. c #8E3D45",
"g. c #A83F49",
"h. c #9E4048",
"j. c #90555A",
"k. c #B34550",
"l. c #86725C",
"z. c #827D7B",
"x. c #8A6C63",
"c. c #AB7B7E",
"v. c #AE784E",
"b. c #50813A",
"n. c #758068",
"m. c #BE885E",
"M. c #85817B",
"N. c #99897C",
"B. c #D89E6A",
"V. c #CCB673",
"C. c #8A8483",
"Z. c #8D8985",
"A. c #8E8C8A",
"S. c #868382",
"D. c #938D8C",
"F. c #948886",
"G. c #94918D",
"H. c #98928F",
"J. c #959392",
"K. c #9B9494",
"L. c #9E9996",
"P. c #9B9699",
"I. c #9A9A98",
"U. c #8E958B",
"Y. c #A49D9C",
"T. c #A39999",
"R. c #AF8587",
"E. c #A7A29E",
"W. c #A9A39D",
"Q. c #A5AA95",
"!. c #A09CA1",
"~. c #A5A3A2",
"^. c #ABA5A4",
"/. c #AEA9A5",
"(. c #ADADAB",
"). c #B3ACAB",
"_. c #B1A8A7",
"`. c #B6B0AC",
"'. c #B8B1AE",
"]. c #B6B9A5",
"[. c #B4B4B4",
"{. c #BCB5B4",
"}. c #BDB9B6",
"|. c #BCBBBA",
" X c #B6B9B9",
".X c #B4B4AA",
"XX c #C1BAB6",
"oX c #C4BCBB",
"OX c #C4B9BB",
"+X c #BDC2BC",
"@X c #C5C0BE",
"#X c #C9C5BF",
"$X c #C4BFC1",
"%X c #BFC0C1",
"&X c #C4C3C2",
"*X c #CCC4C3",
"=X c #CDCBCB",
"-X c #CAC9C6",
";X c #D1C7C5",
":X c #D1C9C6",
">X c #D4CCCA",
",X c #D4CACB",
"<X c #D9D2CE",
"1X c #D7D1CD",
"2X c #D3D3D2",
"3X c #DDD5D2",
"4X c #DFD8D4",
"5X c #DBDBDB",
"6X c #D2D9DB",
"7X c #D0D0D0",
"8X c #E0D7D4",
"9X c #E1D9D6",
"0X c #E5DDDA",
"qX c #E8DFDD",
"wX c #E3D7D9",
"eX c #DFE0DF",
"rX c #E7E0DB",
"tX c #E9E1DE",
"yX c #DFDDE0",
"uX c #DEE5E5",
"iX c #E5E5E5",
"pX c #EDE4E1",
"aX c #EDEDED",
"sX c #E7EAE9",
"dX c #F2EAE6",
"fX c #F4EDEA",
"gX c #F4E9E8",
"hX c #FCF3EE",
"jX c #F3F3F3",
"kX c #FEFEFE",
"lX c #F7F8F8",
"zX c #ECEFF2",
/* pixels */
"B M Q m S S b s m G b.B W a U m < s m M I p U S Z S B B b I 4 K.Z.v M > 8 S I U %.Q A %.*.I Z m S S R U D D U A s d d b M m U U ",
"9 a m M m U S M s B a m ~ b G $.S N s U Y d G D E E D U S B ] rX3X4.' 8.7.y a d &.&.H Q T R U U T U S Z K H U M s m U B m m D V ",
"M a V b i , p m m b m N B m m #.H j m B g m D S R H U U U 9 >.4X<X4X3X9XhX9., T S T A n 9 T Y I D A b s S U U d s Y B B D U D M ",
"#.U D B a b s a m P b C m b i i d m m m d M D n m Q W m W 9 Z.>XM.:XqX0X,X=., e w Z A A d Y H A S $.M D D D U I G I d I ! H A n ",
"T Y K W M W M Z H E I p D W p p d h p N U M d I S I S F $.q '.4Xc.x.;.>._ 7 r P.` Z %.F D Z U M D B n D H L H U I S d s S I D I ",
"G D W M N N i A D C S G Q H M Y p n S G G S p m b M s Z x G.8X8XL.N.4 ; I 4 ).hXT.= Z Z U Q U D H U H Z d G A U G s B E S U D S ",
"D H W P N U V D H ! Q R L Q M N a m S s n I d m S U a 4 _.tX4Xz.0.S._.+.y [.3X3XOXM.4.( w I Z K R Q o.A m m d a U A S G O.A H E ",
"R E D U U Z V V Z D W W %.K U s s S b a I S b I B i ; T.tX8X`.z.dX*X).$XT.G.| F.pXgXhX*X2 m n Z D D Z D M d S e T G Z R T W Q S ",
"U G F M N D M M b B n M S U N m S U b s H S d 6 J >.8.qX<X0X{.E.3X:X3X3X8X:X^.@ ;.H.Y...q R d N Q D a m S A @.G m S S R x U S F ",
"A S N d N M B b V I V U m I A L Q L W D *.> t J.iX5X@X0X<X8X>X*X_.2X[.<X3X3X3X{ k q 2 k D M S G Z S m S D Z s S Z S U U H S p Z ",
"U n s B Y a V M H U D U D B ! L A Q M m > [ iXkXkX2XXX8X3X3X3X8XK.lX7X`.wX X&X>.D %.W %.G S h G D s h U Z H G N d Z S H S S m n ",
"R p b V V B N D U N M U U W %.L D W D w / jXlXjXjXiX/.rX8X<X<X0XK.aXlX`.:X&X6X+.s D M V I s B M S m s G n S O.H M A O.M M m D A ",
"I S D b C Y D W A Q D L U U W E U D ~ - P.kXjXjXjXaXG.).8XtX8XtXE.n.kX XXX(.7X_ M x S D m ~ H M S U B a $.s M D U n w D D E H Z ",
"M I m m N S M W D n D L k m R U U A d = |.kXjXjXjXlXsX|.P.z.7.9.9.* kX=X{.:.(.6 #.O.G S a s M w D S s B U m a B D i D Q Q $.+.n ",
"b a n a U V Y D D M B M V U H ! R a m = %XkXjXjXjXjXlXlX[. XiXiX X:.7X~.7.{ J.o.h R O.%.U Z D U Q G S d a I s m m d S G S D Z D ",
"N D S p N M B B b D m U D ~ , U V b R 7  XkXjXjXjXjXjXaXjXkXkXkXkXyX2X6.:.S.6.6.s U K Z U D U U H Z B S y I G Z s m s d s m G n ",
"s U U 1 < p H B V D D U M S S a B 9 - - U.kXaXjXjXjXjXlXjXlXiX6. XlXkX6.&  .G.P.' s G I U *.Q A Q O.n F v @.S G h h S h f S Z G ",
"U s p s a M N a C M V m b m H > # ..z.;.& 2XkXjXjXjXjXjXjXzX}    XkXjXkX(.J.J.5XI.= b.d d &.$.H U S D D Y G o.h h f S w Z A D G ",
"H b d S U H m a m D D a s M w ) {.tXtXtX{.{ 5XkXfXjXjXjXlXaXM.. & -XuX&X X(.&XkXuXt i d S S S Z M 9 G U I s G I f f s f H Z ! D ",
"b m U G a b b m D I b V E N z 3X0X<X<X<XpXXX,.aXkXkXkXjX5XkX).e.e.. * %XuXzXkXzXjX} 8.y d D Z A Z a Y D T d B Y S e s m T m M M ",
"Y U B s a U s D D M R M S 5 XXrX<X3X3X4X1XpXD.:.L.~.K.D.5XkXuXr.d.s.k.lXlXjXjXkX6X..pXoX{ 4 R Q A A A I I s M B G A w s b m m I ",
"$.Z 9 i s B V M A D H n > 8.tX<X3X3X3X3X4X4X1XY.oXX.q.c.kXzXkX Xu.p.k.zXkXsXsX&X<._.8X0X0X1.4 %.R T O.U p d S S s Z J M S m S s ",
"U M s i 8 m B U a M M U F OX8X3X3X3X3X3X3X3X4X>XtXQ.B.y.{.kXaXlX%Xc.;XkX7Xh.j.A.oX0X3X3X3XqX3.k F D S m d m j u h S S W n b m m ",
"%.W b < a d k ~ m L ~ 1 c *X8X3X3X3X3X3X3X3X3X3X3X#XN.s.t. XkXkXkXzX6XK.r.p.R.fX8X3X3X3X3X8X8X-.M H M s T S d u S s p S D i 9 s ",
"m U H m m g Z h T U - { XX3X3X3X3X3X8X3X3X3X3X3X3X0X).r.a.u.2.~.P.g.t.r.i.h.=X4X1X<X3X3X8X<X0X@Xc e ! x s I S G S w S B s C M M ",
"D B n a p a s Y n O S.0X0X3X3X3X3X3X3X3X3X3X3X3X3X3XrX X^ m.v.w.p.a.s.V.X.XX}.}.}.{.0X<X3X3X<X0X$Xl w U T T G 0 2 w G S b R M D ",
"D a S d s p d w @ ).tX3X<X3X3X3X3X4X3X3X3X3X3X3X3X3X3X8X=XQ.x.h.k.h.x.N.#X).7XlX>XC.;X8X3X3X3X<X0X:Xt s @.#.r P.^.% i G p N U U ",
"M I M s S d : @ *XtX<X3X8X3X3X<X3X<X8X8X<X3X3X3X<X8X@X|.=X=X+X(.(.+X>X:X/.2XkXkXkXJ.G.qX<X8X3X4X<XqXoX% E e 7.dXqX` f 9 0.5.M Y ",
"U U I d d d @ {.rX<X3X3X3X3X3X0X0XpX>X}.8X0X0XrXtX<X2XkXkXkXlXaX5X-X|.&XsXkXkXkXkX&X1.8X3X3X3X3X3X<XtXY.2 A {.0X3Xc : ' pX].x %.",
"n n s B g X Z.pX<X3X8X3X3X3X3X#X'.z.{ ).*XoX{.^.L.M.K.|.jXkXkXkXkXkXkXkXkXkXkXkXkX5X:.<X3X3X3X3X3X3X3XpX5.q *XwXZ.z @ XXpXQ.p U ",
"k N p i 9 / 4X3X3X3X3X3X3X8X<X).H.7.4.<.<.,.7.F.E.[._.Z.<.&XkXlXkXkXkXkXkXkXkXkXkX5X( E.pX8X<X3X3X3X3X8X:XL.8X'.^.K.L.0X8X].N %.",
"D R s 9 - Z.tX2X3X3X3X3X3X3X3X0XtXpXtX0X8X0XrXtXtX0X0XpX1X7.[.kXkXkXkXkXkXkXkXkXkX-Xt e z.>XpX8X<X<X3X3X3X0X3X3X9X*X8X<XqXQ.a R ",
"S E s G = K.qX<X3X3X3X3X3X3X3X3X<X<X<X<X8X<X<X<X<X3X3X<X4XrXK.~.5XkXkXkXkXkXkXkXkX/.$ U k l S.*XpXqX8X3X3X3X3X3X3X4X<X8X;Xt R G ",
"G I s Y - } pX<X3X3X3X3X3X3X3X3X8X3X8X3X<X8X8X<X3X3X3X3X3X4X4XoXJ.A.jXkXkXkXkXkXjX1.2 T R b - 5 :.P.*X8X3X3X3X3X3X<X0X1X] 7 @.G ",
"G B d S C + P.dX1X3X3X3X3X3X3X3X3X3X8X3X8X<X`.8X4X3X3X3X4X3X3X8XtXE.4.kXkXkXkXkX$X& i I M d T G 9 6 5.0X1X3X3X3X3X0X;X' s Y T R ",
"s B a d d o.o D.pX0X3X<X3X3X3X3X3X<X<X<X<XdXH.'.1X<X3X3X3X3X3X9X^.:XD.~.kXkXkXjX7.e R H m s B I Y T c ;XrX3X3X3X0X[.c m G R U S ",
"J T 1 a D H R X  .).0XpXpX9X9X8X0X0XtXpX<X/.H.4.G.8X3X3X3X3X<X3X3X4.).D.kXkXkX*X( a W n s d m G J G 7 :.*X3X3X0X(.u h T u Z I @.",
"R m a m m s *.E + X & 7.E.}.*X;XoX`.H.1.z ;.0X@X4.8X3X8X>X<XtX<XqX/.| 7XkXkXiXZ.4 p m n G d S D G I $.4 O ).8X8X3.e j d s h T T ",
"T B a e m s N B Y B 3 o X O O # $ $ 5 w < v 1X0X8.:X4X0XK.K.).9X8X3X;.aXkXlX X) Z I s I Y s i s m R o./ G.`.1XqX5.a j A 9 j I T ",
"R D I S F Q W b B B U *.a w 3.v q 7 M E Y - Y.gXz.E.tX3XZ.sX X4.oXdX:.iXkX3X7.4 $.D a D Z J d Z A E 5 D.hX4X<XqX;.< T J 0 S $.G ",
"A G I a w K W a N s a Q q D.dXXX*X'._ m p c L.tX@X` <XfXG.5XkX=X=.:.S.kXaXK.r C a d a N Z F Z Z G G 0 ' 0XwXqX:Xt s S Z w m K +.",
"Z T I a a U m m U M n ! 3 Y.tX<XtXpXOXe / ,X*X<XtXT.{ _.D.aXkXkXjX=XlXkX)._ Z b C G S S n w A H D H &.= } $XOX] 7 U D A G G Z Z ",
"R Y g d s g V H m U R ! D z ,X#Xz.>X0X( {.0X3X3X<XtX^.J.eXkXkXkXkXkXkX$X{ 9 Y U a U n 9 m d s G S m U I = 5 5 , m S S s R T m o.",
"R B I R G a P Q U F S m U 8 l -.; z.{.7.tX<X3X3X<X4X@XaXkXkXkXkXkXkX7X} 0 I a I M N p s i U U Z n V M U Q U m E C g G D p n G O.",
"a a B M a d m I m Z A d d I U i < $.D.'.0X<X3X3X3X8X}.iXkXkXkXkXkX=X..3 M d Z #.S S x v m m h $.H I m 9 U 9 Z G s m B U B d s G ",
"R Z m m p N B C B I G S G s A h a p 7.>X8X3X3X8X3X8X@X5XkXkXkXlXoXZ.~.0.4 s S m S T m Z n d f E H -.R M Z D Q D G d d m d a d d ",
"R L Z U Z J d d m B d 9 n S h h 6 _ ).8X3X3X3X3X3X4X1X@XjXjX5XXXXX:XqX0X)./ 3 ~ Y D M m s D W M L A B R H U U G m V x Z T d i I ",
"D R s D L R m p m N s s G Y w O 9.3XrX3X3X3X3X3X3X3X4X>X}.XXoX3X9X3X3X3XqX3X..- Q D m I U $.H m G S I Q %.D D $.A D F H G Z G U ",
"d S h G U D N S D U a s T - @ ).tX4X<X3X3X3X3X<X<X3X8X0XrX0XtX8X<X<X<X8X<X8XtX<.6 %.b D A U U M U I a Y &.H H S S L U #.J @.T j ",
"h s A T w F n G H m s T w @ -XtX<X3X4X3X3X<X8XqXtX8X;X{.).[.oX<X0XrX8X<X8X<X8X0X} p D A R H H I I d s j U Z D s s Y I h s R j s ",
"d G s m a d M D S m U E % {.tX3X3X3X4X<X8XtX1XY.,._ 5 t 4 - 4 _ >.^.<X8X3X3X<X0X^.e L Z I S S T A 9 Y D n Z K a C R D I d I s d ",
"i d B a b S M T D D L e 4.pX>X3X3X3X4XrX>XZ.c - : a C H U T h s a : >.<X3X3X<XtXM.u O.Z m d s S T S S @.H H F F A D I m s S d , ",
"m s d s Z W b p m v P i 4.pX<X3X3X3X>X/.F 9 b V b n T I S S Z j M 5 XX8X<X<XdX~.2 D s M m S S s G A A R T $.Q U G $.d f d S S b ",
"U a m S Z G I s B d H V t oXqX<X<X0X^.+ g B V D S n a M s 9 n f $ ).qX3X0X0XK.z -.+._ t y F E S I I D D Z E K v I B m s I S D D ",
"9 s S S a S m s a s D R 9 z *XpX3X3X4X4.= B U H S s s N s R s # ).tX<X3XoXM.G.>X3X0X#Xz. .( e S j G U U G n R G D m S I B Z U D ",
"a S m p a U S N I T , - s - O K.3X4X4X0XZ.r e B T G h R m T # ).pX<X3X3X'.*XtX8X*XT.D.>X`. .c d Z N U H D D $.Z S R w G d s M M ",
"D D W M A E s G s 4 >.M.Z.Z.=.| C.XX4X3XtX:X8.y m D I G G 8 { dX>X3X3X3X0X8X3X3X,X:XT. .2XL.# U n K L v %.L %.W D D I T T T B N ",
"%.L L D S U M 9 z P.}.tXdXqXtX8X1X:X3X3X3X3XdX~.3 n m I T a $ P.dX8X3X<X<X<X<X3X8X3XfXM.7.OX2 E D n x G Q R $.$.D I G @.@.G S Q ",
"H D W n m V m 2 ..K.*XT.z.A.E.>X8X8X3X3X3X1X0XY.6 T m s d g s O <.oX0XtXqX0X0X8X3X<XgXz.1.>.s m 9 B p m D D A G Z m U Y H E Q ~ ",
"R D U M A D a % ^.gXM.7.>X<X>X>X3X3X3X3X3X3XwX/ s M G G I d U s + O ) 9.Y.XX'.@X8X8X_.% c e N p s p U A Z x H M U H M Z E U Q %.",
"R R D U M G : 7.gXXX..0X8X<X8X8X3X3X3X3X9X0X} 0 R s F G k I R S I U , = 2 q s y _ c 2 s b.I h Z k s B Q D D H n N U N m m d D U ",
"R U N 9 M U - 1.hX'.<.dX<X<X3X<X<X3X8XpXoX/ + ! Z R A D B M n s h H S #.%.R I N p m n H S k R G T s G U I U v Q H W N D M B U Q ",
"b.M a m a p M % D.wX..P.tXrX0X0XqX0XoX,.@ 0 I S R D W A A m f d s m s S R O.%.I A G R Q G Z J d S b U R S S Q E H D U A M V M M ",
"B B b s R b p m = l ) X ;.L._./.D.{ O + E R W D B S H M W M m s 8 s Q U Z L Z Y D W Y G A n O.T S D D U M U R R P N p M M m M i "
};
